<svg viewBox="0 0 16 15" fill="none" xmlns="http://www.w3.org/2000/svg">
  <path d="M14.7663 1.32611C14.3753 0.905694 13.9111 0.572191 13.4002 0.344652C12.8893 0.117114 12.3417 0 11.7887 0C11.2357 0 10.6881 0.117114 10.1772 0.344652C9.66629 0.572191 9.20211 0.905694 8.81116 1.32611L7.9998 2.19821L7.18843 1.32611C6.39874 0.477297 5.32768 0.000439969 4.21089 0.000439978C3.09409 0.000439986 2.02303 0.477297 1.23334 1.32611C0.443646 2.17492 8.32078e-09 3.32616 0 4.52656C-8.32078e-09 5.72696 0.443646 6.87819 1.23334 7.727L2.0447 8.5991L7.26765 14.213C7.66318 14.6382 8.33642 14.6382 8.73194 14.213L13.9549 8.5991L14.7663 7.727C15.1574 7.30679 15.4677 6.80785 15.6794 6.25871C15.891 5.70957 16 5.12097 16 4.52656C16 3.93214 15.891 3.34355 15.6794 2.7944C15.4677 2.24526 15.1574 1.74633 14.7663 1.32611Z"
        fill="url(#heart-gradient)"/>
  <defs>
    <linearGradient id="heart-gradient" x1="1.38667" y1="19.5536" x2="15.1617" y2="19.2532"
                    gradientUnits="userSpaceOnUse">
      <stop stop-color="#A2349E"/>
      <stop offset="0.915345" stop-color="#E7246A"/>
    </linearGradient>
  </defs>
</svg>