<svg width="23" height="25" viewBox="0 0 23 25" fill="none" xmlns="http://www.w3.org/2000/svg">
<path fill-rule="evenodd" clip-rule="evenodd" d="M22.3998 4.8C22.3998 7.45097 20.2508 9.6 17.5998 9.6C16.4147 9.6 15.3298 9.17049 14.4925 8.45864L9.53567 11.2124C9.57799 11.4687 9.6 11.7319 9.6 12.0002C9.6 12.7355 9.43465 13.4323 9.1391 14.0552L14.0414 16.7787C14.9197 15.8092 16.1886 15.2002 17.5998 15.2002C20.2508 15.2002 22.3998 17.3492 22.3998 20.0002C22.3998 22.6512 20.2508 24.8002 17.5998 24.8002C14.9488 24.8002 12.7998 22.6512 12.7998 20.0002C12.7998 19.4793 12.8828 18.9778 13.0362 18.5082L7.90734 15.6588C7.06999 16.3707 5.98516 16.8002 4.8 16.8002C2.14903 16.8002 0 14.6512 0 12.0002C0 9.34923 2.14903 7.2002 4.8 7.2002C6.46557 7.2002 7.93301 8.04852 8.79381 9.33667L13.2607 6.85504C12.9652 6.23209 12.7998 5.53536 12.7998 4.8C12.7998 2.14903 14.9488 0 17.5998 0C20.2508 0 22.3998 2.14903 22.3998 4.8ZM17.5998 7.6C19.1462 7.6 20.3998 6.3464 20.3998 4.8C20.3998 3.2536 19.1462 2 17.5998 2C16.0534 2 14.7998 3.2536 14.7998 4.8C14.7998 6.3464 16.0534 7.6 17.5998 7.6ZM4.8 14.8002C6.3464 14.8002 7.6 13.5466 7.6 12.0002C7.6 10.4538 6.3464 9.2002 4.8 9.2002C3.2536 9.2002 2 10.4538 2 12.0002C2 13.5466 3.2536 14.8002 4.8 14.8002ZM20.3998 20.0002C20.3998 21.5466 19.1462 22.8002 17.5998 22.8002C16.0534 22.8002 14.7998 21.5466 14.7998 20.0002C14.7998 18.4538 16.0534 17.2002 17.5998 17.2002C19.1462 17.2002 20.3998 18.4538 20.3998 20.0002Z" fill="#673BB7"/>
</svg>
