<svg width="50" height="42" viewBox="0 0 50 42" fill="none" xmlns="http://www.w3.org/2000/svg">
<path d="M31.4711 37.2227C30.7444 37.2227 30.1139 36.6825 30.0196 35.9428C29.9178 35.1402 30.4854 34.407 31.2876 34.3048C35.9164 33.7151 40.0615 32.4608 42.9591 30.7724C45.6092 29.2286 47.0683 27.4136 47.0683 25.6618C47.0683 23.7312 45.3608 22.1516 43.928 21.1658C43.2616 20.7073 43.093 19.7956 43.5515 19.1288C44.01 18.4624 44.9221 18.2938 45.5886 18.7523C48.4732 20.7367 49.998 23.1258 49.998 25.6622C49.998 28.5408 48.0742 31.1832 44.4342 33.3038C41.1578 35.2127 36.74 36.5639 31.658 37.2112C31.5951 37.2189 31.5325 37.2227 31.4711 37.2227Z" fill="#673BB7"/>
<path d="M24.6429 35.1245L20.7367 31.2183C20.1645 30.6461 19.2371 30.6461 18.6649 31.2183C18.0931 31.7901 18.0931 32.7178 18.6649 33.2897L19.8063 34.431C15.4301 33.979 11.4544 32.9601 8.37593 31.4796C4.91486 29.8152 2.92969 27.6946 2.92969 25.6622C2.92969 23.9383 4.35104 22.1465 6.93169 20.6169C7.62787 20.2045 7.85751 19.3057 7.44514 18.6099C7.03239 17.9138 6.13365 17.6841 5.43785 18.0965C0.943375 20.7607 0 23.6812 0 25.6622C0 28.9123 2.5238 31.916 7.1064 34.1201C10.6632 35.8302 15.2641 36.9758 20.2766 37.4191L18.6649 39.0308C18.0931 39.6026 18.0931 40.5303 18.6649 41.1025C18.951 41.3883 19.326 41.5313 19.701 41.5313C20.0756 41.5313 20.4506 41.3883 20.7367 41.1025L24.6429 37.1963C25.2148 36.6241 25.2148 35.6964 24.6429 35.1245Z" fill="#673BB7"/>
</svg>
