<svg width="22" height="20" viewBox="0 0 22 20" fill="none" xmlns="http://www.w3.org/2000/svg">
<path d="M19.5818 2.46029L19.5822 2.46063C20.0291 2.9263 20.3858 3.48141 20.6298 4.09529C20.8739 4.70922 21 5.3686 21 6.03541C21 6.70222 20.8739 7.3616 20.6298 7.97553C20.3858 8.5894 20.0291 9.14452 19.5822 9.61019L19.582 9.61036L18.4664 10.7732L11.7213 17.8035C11.3277 18.2137 10.6717 18.2137 10.2781 17.8035L3.53306 10.7732L2.41744 9.61036C1.5143 8.66902 1 7.38378 1 6.03541C1 4.68703 1.5143 3.4018 2.41744 2.46046C3.31923 1.52054 4.53327 1.00059 5.78997 1.00059C7.04667 1.00059 8.26071 1.52054 9.1625 2.46046L10.2781 3.62326C10.4667 3.81982 10.7273 3.93095 10.9997 3.93095C11.2721 3.93095 11.5327 3.81982 11.7213 3.62326L12.8369 2.46046L12.8371 2.46029C13.2838 1.99449 13.8119 1.6273 14.3901 1.37758C14.9682 1.12791 15.5863 1 16.2095 1C16.8326 1 17.4507 1.12791 18.0288 1.37758C18.607 1.6273 19.1351 1.99449 19.5818 2.46029Z" stroke="#673BB7" stroke-width="2" stroke-linecap="round" stroke-linejoin="round"/>
</svg>
