<svg width="18" height="16" viewBox="0 0 18 16" fill="none" xmlns="http://www.w3.org/2000/svg">
<path d="M10.6263 2.11489L10.6265 2.11473C10.9743 1.76006 11.3863 1.47975 11.8384 1.28886C12.2904 1.09799 12.7742 1 13.2623 1C13.7504 1 14.2342 1.09799 14.6862 1.28886C15.1383 1.47975 15.5503 1.76006 15.8981 2.11473L15.8984 2.11506C16.2465 2.46959 16.5235 2.89156 16.7129 3.35733C16.9023 3.82314 17 4.32304 17 4.82833C17 5.33361 16.9023 5.83352 16.7129 6.29932C16.5235 6.7651 16.2465 7.18706 15.8984 7.5416L15.8983 7.54176L14.9855 8.472L9.71354 13.8448C9.32154 14.2443 8.678 14.2443 8.28599 13.8448L3.01406 8.472L2.30029 9.17238L3.01406 8.472L2.10128 7.54176C1.39826 6.82529 1 5.84959 1 4.82833C1 3.80707 1.39826 2.83136 2.10128 2.11489C2.80367 1.39907 3.75225 1.00047 4.73725 1.00047C5.72225 1.00047 6.67082 1.39907 7.37321 2.11489L7.93121 1.56737L7.37321 2.11489L8.286 3.04514C8.47405 3.23678 8.73127 3.34476 8.99977 3.34476C9.26827 3.34476 9.52549 3.23678 9.71354 3.04513L10.6263 2.11489Z" stroke="#673BB7" stroke-width="2" stroke-linecap="round" stroke-linejoin="round"/>
</svg>
