<svg width="16" height="15" viewBox="0 0 16 15" fill="none" xmlns="http://www.w3.org/2000/svg">
<path d="M9.17723 1.66668L9.17731 1.6666C9.52365 1.29416 9.93288 1.00081 10.3806 0.801401C10.8282 0.602046 11.3066 0.5 11.7887 0.5C12.2708 0.5 12.7492 0.602046 13.1968 0.801401C13.6445 1.00081 14.0538 1.29416 14.4001 1.6666L14.4003 1.66677C14.7468 2.0391 15.0235 2.4831 15.2128 2.97425C15.4022 3.46543 15.5 3.99301 15.5 4.52656C15.5 5.06011 15.4022 5.58769 15.2128 6.07886C15.0235 6.57001 14.7468 7.01401 14.4003 7.38634L14.4002 7.38643L13.5888 8.25853L8.36587 13.8725C8.16811 14.085 7.83149 14.085 7.63372 13.8725L2.41077 8.25853L1.59941 7.38643C0.899103 6.63369 0.5 5.60553 0.5 4.52656C0.5 3.44758 0.899103 2.41942 1.59941 1.66668C2.29859 0.915169 3.23882 0.50044 4.21089 0.50044C5.18295 0.50044 6.12319 0.915169 6.82236 1.66668L7.63372 2.53879C7.72831 2.64046 7.86093 2.69821 7.9998 2.69821C8.13866 2.69821 8.27128 2.64046 8.36587 2.53879L9.17723 1.66668Z" stroke="#8F9499" stroke-linecap="round" stroke-linejoin="round"/>
</svg>
