<svg viewBox="0 0 18 18" fill="none" xmlns="http://www.w3.org/2000/svg">
  <path fill-rule="evenodd" clip-rule="evenodd"
        d="M10.8351 0.625914C9.7548 -0.208637 8.2473 -0.208638 7.16701 0.625913L6.57277 1.08498C6.15077 1.41098 5.64951 1.61861 5.1206 1.68649L4.3758 1.78207C3.0218 1.95583 1.95583 3.0218 1.78207 4.3758L1.68649 5.12059C1.61861 5.64951 1.41098 6.15077 1.08498 6.57277L0.625914 7.16701C-0.208637 8.2473 -0.208638 9.7548 0.625913 10.8351L1.08498 11.4293C1.41098 11.8513 1.61861 12.3526 1.68649 12.8815L1.78207 13.6263C1.95583 14.9803 3.0218 16.0463 4.3758 16.22L5.12059 16.3156C5.64951 16.3835 6.15077 16.5911 6.57277 16.9171L7.16701 17.3762C8.2473 18.2107 9.7548 18.2107 10.8351 17.3762L11.4293 16.9171C11.8513 16.5911 12.3526 16.3835 12.8815 16.3156L13.6263 16.22C14.9803 16.0463 16.0463 14.9803 16.22 13.6263L16.3156 12.8815C16.3835 12.3526 16.5911 11.8513 16.9171 11.4293L17.3762 10.8351C18.2107 9.7548 18.2107 8.2473 17.3762 7.16701L16.9171 6.57277C16.5911 6.15077 16.3835 5.64951 16.3156 5.12059L16.22 4.3758C16.0463 3.0218 14.9803 1.95583 13.6263 1.78207L12.8815 1.68649C12.3526 1.61861 11.8513 1.41098 11.4293 1.08498L10.8351 0.625914ZM12.4284 7.34319C12.7176 7.05571 12.7237 6.58346 12.4419 6.28841C12.1601 5.99336 11.6972 5.98723 11.408 6.27471L7.9372 9.72498L6.60011 8.28505C6.32242 7.98599 5.85967 7.97323 5.56655 8.25655C5.27342 8.53986 5.26092 9.01197 5.53861 9.31103L7.38562 11.3001C7.5202 11.445 7.70611 11.5289 7.90175 11.5329C8.09739 11.5369 8.28644 11.4607 8.42659 11.3214L12.4284 7.34319Z"
        fill="url(#verified-gradient)"/>
  <defs>
    <linearGradient id="verified-gradient" x1="2.42667" y1="36.5" x2="26.5344" y2="36.0071"
                    gradientUnits="userSpaceOnUse">
      <stop stop-color="#A2349E"/>
      <stop offset="0.915345" stop-color="#E7246A"/>
    </linearGradient>
  </defs>
</svg>