<svg width="20" height="29" viewBox="0 0 20 29" fill="none" xmlns="http://www.w3.org/2000/svg">
<path d="M10.0019 0C6.06005 0 2.85437 3.20568 2.85437 7.14756C2.85437 11.0894 6.06005 14.2951 10.0019 14.2951C13.9438 14.2951 17.1495 11.0894 17.1495 7.14756C17.1495 3.20568 13.9438 0 10.0019 0ZM10.0019 10.7213C8.03099 10.7213 6.42815 9.1185 6.42815 7.14756C6.42815 5.17662 8.03099 3.57378 10.0019 3.57378C11.9729 3.57378 13.5757 5.17662 13.5757 7.14756C13.5757 9.1185 11.9729 10.7213 10.0019 10.7213Z" fill="white"/>
<path d="M19.4776 14.0968C18.7789 13.3981 17.6496 13.3981 16.9509 14.0968C13.1198 17.9279 6.88355 17.9279 3.05067 14.0968C2.35199 13.3981 1.22268 13.3981 0.524006 14.0968C-0.174669 14.7954 -0.174669 15.9247 0.524006 16.6252C2.7469 18.8481 5.56483 20.115 8.47031 20.4456L3.37588 25.54C2.67721 26.2387 2.67721 27.368 3.37588 28.0667C4.07456 28.7653 5.20387 28.7653 5.90255 28.0667L9.99989 23.9693L14.0972 28.0667C14.4457 28.4151 14.9031 28.5902 15.3606 28.5902C15.818 28.5902 16.2754 28.4151 16.6239 28.0667C17.3226 27.368 17.3226 26.2387 16.6239 25.54L11.5295 20.4456C14.435 20.115 17.2529 18.8481 19.4758 16.6252C20.1744 15.9265 20.1744 14.7954 19.4776 14.0968Z" fill="white"/>
</svg>
