<svg xmlns="http://www.w3.org/2000/svg" viewBox="0 0 1306.63 1306.63">
  <path fill="currentColor" fill-rule="nonzero" stroke="currentColor" stroke-width="14.26"
        stroke-miterlimit="22.9256"
        d="M405.8 453.57c9.12,1.13 14.56,2.17 20.05,2.43 37.01,1.79 29.56,7.21 29.25,-30.25 -1.85,0.65 -3.64,0.97 -5.11,1.83 -13.79,8.04 -27.53,16.17 -44.19,25.99zm105.88 -39.27c0,10.62 1.1,21.39 -0.23,31.84 -2.7,21.25 4.31,37.07 19.42,52.64 41.12,42.38 80.58,86.39 120.38,130.04 5.81,6.37 10.4,6.97 17.56,2.46 14.44,-9.1 29.39,-17.39 44.15,-25.99 75.34,-43.93 150.68,-87.87 226.04,-131.77 5.23,-3.04 11.35,-4.68 3.94,-12.6 -39.11,-41.77 -78.01,-83.76 -116.47,-126.13 -6.83,-7.53 -11.61,-7.05 -19.68,-2.28 -53.63,31.7 -107.57,62.87 -161.42,94.22 -16.35,9.52 -32.58,19.26 -49.11,28.47 -10.7,5.96 -21.79,7.4 -32.69,-0.09 -10.68,-7.34 -11.86,-18.07 -10.43,-29.57 1.37,-11 9.8,-16.04 18.32,-21 70.98,-41.35 141.87,-82.85 212.98,-123.97 7.66,-4.43 11.28,-9.13 10.95,-18.42 -0.75,-20.76 -0.19,-41.56 -0.24,-62.35 -0.03,-13.43 -1.25,-14.19 -12.85,-7.43 -87.72,51.11 -175.36,102.34 -263.16,153.3 -5.62,3.26 -7.66,6.97 -7.56,13.21 0.28,18.47 0.1,36.95 0.11,55.43l0 0zm169.65 705.93c3.35,-1.24 5.07,-1.62 6.52,-2.46 89.75,-52.19 179.47,-104.45 269.26,-156.58 5.94,-3.45 7.51,-8.02 7.96,-14.67 10.92,-159.11 0.53,-244.32 0.7,-408 0.02,-13.21 -1.86,-13.91 -13.19,-7.3 -86.5,50.47 -172.94,101.03 -259.63,151.16 -8.7,5.03 -11.92,10.51 -11.87,20.64 0.42,90.53 0.25,67.15 0.23,157.68 0,6.47 0.34,12.97 -0.27,19.39 -1.83,18.89 -19.11,29.85 -37,23.77 -13.25,-4.5 -18.62,-13.91 -18.63,-33.41 -0.04,-95.62 -0.1,-77.31 0.11,-172.93 0.02,-8.71 -1.75,-15.39 -8.11,-22.19 -47.57,-50.94 -94.68,-102.31 -141.7,-153.77 -3.77,-4.13 -7.43,-5.97 -12.87,-6.39 -35.42,-2.74 -70.88,-5.12 -106.16,-9.14 -12.2,-1.39 -14.95,1.43 -14.93,13.21 0.31,178.3 0.38,242.67 -0.13,420.96 -0.04,12.6 4.34,18.96 14.59,24.89 84.31,48.7 168.33,97.9 252.56,146.75 4.89,2.84 9.34,7.5 16.64,7 0,-4.87 0,-9.44 0,-14 0,-37.42 -0.12,-74.83 0.05,-112.25 0.1,-21.37 10.89,-33.84 28.42,-33.51 17.38,0.32 27.28,12.01 27.4,32.88 0.15,26.33 0.04,52.66 0.04,78.99 0,15.97 0,31.95 0,49.29l0 0zm-396.37 -638.92c-0.04,-15.92 5.69,-26.58 20.01,-34.67 46.6,-26.31 92.55,-53.76 138.86,-80.58 7.26,-4.2 12.22,-8.58 11.27,-18.21 -2.28,-23.03 9.37,-36.52 29.21,-47.88 105.69,-60.51 210.67,-122.28 315.88,-183.64 8.05,-4.69 16.06,-8.79 25.95,-7.93 13.97,1.22 22.69,9.6 24.43,23.55 2.4,19.34 -0.07,38.63 -0.03,57.95 0.06,25.78 0.11,51.56 -0.04,77.35 -0.04,6.84 2,12.23 6.76,17.39 51.63,55.93 102.95,112.14 154.66,168.01 6.8,7.35 9.73,15.27 9.72,24.93 -0.07,201.36 -0.13,288.78 -0.04,490.14 0.01,14.79 -5.59,24.85 -18.83,32.51 -110.19,63.8 -220.14,128.02 -330.04,192.33 -13.4,7.84 -25.61,7.63 -38.96,-0.19 -109.08,-63.9 -218.16,-127.8 -327.67,-190.96 -15.33,-8.85 -21.09,-20.03 -21.04,-36.9l-0.11 -483.2z"/>
</svg>