<svg xmlns="http://www.w3.org/2000/svg" viewBox="0 0 577.13 577.13">
  <path fill="currentColor" fill-rule="nonzero"
        d="M383.15 225.71c-6.9,-3.96 -15.76,-3.96 -23.64,0l-55.16 32.65 -37.43 20.78 -54.18 32.65c-6.9,3.96 -15.76,3.96 -23.64,0l-42.36 -25.72c-6.9,-3.96 -11.82,-11.87 -11.82,-20.78l0 -49.47c0,-7.91 3.94,-15.83 11.82,-20.78l42.36 -24.74c6.9,-3.96 15.76,-3.96 23.64,0l42.36 25.73c6.89,3.96 11.82,11.87 11.82,20.78l0 32.65 37.43 -21.77 0 -33.64c0,-7.92 -3.94,-15.83 -11.82,-20.78l-78.8 -46.5c-1.46,-0.84 -3,-1.5 -4.61,-1.98l-13.93 0c-1.73,0.48 -3.43,1.14 -5.1,1.98l-80.77 47.49c-7.84,3.94 -11.78,11.79 -11.82,19.66l0 93.25c0.04,7.87 3.98,15.73 11.82,20.65l79.79 46.5c6.9,3.96 15.76,3.96 23.64,0l54.18 -31.66 37.43 -21.77 54.18 -31.66c6.9,-3.96 15.76,-3.96 23.64,0l42.36 24.74c6.89,3.96 11.82,11.87 11.82,20.78l0 49.47c0,7.92 -3.94,15.83 -11.82,20.78l-41.37 24.74c-6.9,3.96 -15.76,3.96 -23.64,0l-42.36 -24.74c-6.9,-3.96 -11.82,-11.87 -11.82,-20.78l0 -31.66 -37.43 21.77 0 32.65c0,7.92 3.94,15.83 11.82,20.78l79.79 46.51c1.46,0.84 3,1.49 4.61,1.98l13.93 0c1.73,-0.48 3.44,-1.14 5.1,-1.98l79.79 -46.51c6.9,-3.96 11.82,-11.87 11.82,-20.78l0 -93.99c0,-7.92 -3.94,-15.83 -11.82,-20.78l-79.79 -46.5z"/>
</svg>