<svg width="24" height="24" viewBox="0 0 24 24" fill="none" xmlns="http://www.w3.org/2000/svg">
<path d="M19.45 6.93965V9.44965C19.45 10.1596 18.73 10.6196 18.06 10.3696C17.22 10.0596 16.29 9.93965 15.31 10.0396C12.93 10.2996 10.49 12.5896 10.09 14.9596C9.76004 16.9296 10.39 18.7696 11.6 20.0696C12.15 20.6696 11.78 21.6396 10.97 21.7296C10.28 21.8096 9.60004 21.7896 9.22004 21.5096L3.72004 17.3996C3.07004 16.9096 2.54004 15.8496 2.54004 15.0296V6.93965C2.54004 5.80965 3.40004 4.56965 4.45004 4.16965L9.95004 2.10965C10.52 1.89965 11.46 1.89965 12.03 2.10965L17.53 4.16965C18.59 4.56965 19.45 5.80965 19.45 6.93965Z" fill="#1998A7"/>
<path d="M16 11.51C13.52 11.51 11.5 13.53 11.5 16.01C11.5 18.49 13.52 20.51 16 20.51C18.48 20.51 20.5 18.49 20.5 16.01C20.5 13.52 18.48 11.51 16 11.51Z" fill="#1998A7"/>
<path d="M21 22C20.73 22 20.48 21.89 20.29 21.71C20.25 21.66 20.2 21.61 20.17 21.55C20.13 21.5 20.1 21.44 20.08 21.38C20.05 21.32 20.03 21.26 20.02 21.2C20.01 21.13 20 21.07 20 21C20 20.87 20.03 20.74 20.08 20.62C20.13 20.49 20.2 20.39 20.29 20.29C20.52 20.06 20.87 19.95 21.19 20.02C21.26 20.03 21.32 20.05 21.38 20.08C21.44 20.1 21.5 20.13 21.55 20.17C21.61 20.2 21.66 20.25 21.71 20.29C21.8 20.39 21.87 20.49 21.92 20.62C21.97 20.74 22 20.87 22 21C22 21.26 21.89 21.52 21.71 21.71C21.66 21.75 21.61 21.79 21.55 21.83C21.5 21.87 21.44 21.9 21.38 21.92C21.32 21.95 21.26 21.97 21.19 21.98C21.13 21.99 21.06 22 21 22Z" fill="#1998A7"/>
</svg>
