<svg viewBox="0 0 137 49" fill="none" xmlns="http://www.w3.org/2000/svg">
<g clip-path="url(#clip0_1_136)">
<path d="M4.79386 14.0523C5.15547 14.0983 5.37162 14.1404 5.58927 14.1512C7.05766 14.2243 6.76199 14.4446 6.7497 12.9203C6.67604 12.9466 6.6053 12.9597 6.54695 12.9946C5.99979 13.3219 5.45472 13.6528 4.79386 14.0523ZM8.99464 12.4542C8.99464 12.8866 9.03824 13.3246 8.98544 13.7501C8.87822 14.615 9.15645 15.2587 9.75569 15.8923C11.3871 17.6172 12.9525 19.4083 14.5316 21.1848C14.762 21.444 14.9442 21.4684 15.2283 21.2848C15.8014 20.9146 16.3945 20.5771 16.9798 20.227C19.969 18.4389 22.9581 16.651 25.9478 14.864C26.155 14.7402 26.3981 14.6736 26.104 14.3513C24.5521 12.6512 23.0089 10.9426 21.4831 9.21794C21.212 8.9114 21.0223 8.93093 20.7025 9.12497C18.5748 10.4154 16.4347 11.6839 14.2985 12.9595C13.6497 13.3469 13.0059 13.7436 12.3501 14.1183C11.9258 14.3608 11.4856 14.4195 11.0533 14.1147C10.6296 13.816 10.5828 13.3794 10.6394 12.9112C10.6936 12.4634 11.0284 12.2585 11.3664 12.0566C14.1824 10.3738 16.9948 8.68491 19.8159 7.01121C20.1197 6.83095 20.2636 6.6395 20.2502 6.26136C20.2204 5.41654 20.2427 4.56989 20.2407 3.7239C20.2394 3.17743 20.1912 3.14639 19.7307 3.42171C16.2508 5.50175 12.7736 7.58672 9.29019 9.66067C9.06736 9.79336 8.98642 9.94433 8.99016 10.1984C9.00147 10.9501 8.99423 11.7022 8.99464 12.4542ZM15.7253 45.821C15.8581 45.7703 15.9264 45.755 15.9839 45.7207C19.5447 43.5966 23.104 41.4699 26.6663 39.3483C26.902 39.2079 26.9641 39.0218 26.9823 38.751C27.0753 37.3601 26.957 35.971 26.9756 34.5809C27.0016 32.6468 27.0067 30.7122 27.0066 28.7778C27.0065 26.9186 26.9797 25.0593 26.9806 23.2C26.9816 21.3032 27.0083 19.4063 27.0102 17.5095C27.0108 16.972 26.9363 16.9435 26.487 17.2124C23.0553 19.2661 19.626 21.3242 16.1867 23.3644C15.8415 23.5692 15.7139 23.7922 15.7158 24.2044C15.7323 27.8891 15.7255 31.5738 15.725 35.2585C15.725 35.5217 15.7386 35.7865 15.7141 36.0475C15.6417 36.8162 14.9561 37.2623 14.2464 37.0151C13.7206 36.832 13.5077 36.4489 13.5074 35.6553C13.5057 31.7637 13.5036 27.8722 13.5115 23.9808C13.5122 23.6264 13.442 23.3544 13.19 23.0778C11.3026 21.0046 9.43362 18.9138 7.56844 16.8196C7.41867 16.6513 7.27363 16.5764 7.05756 16.5593C5.65252 16.4477 4.24533 16.3513 2.84581 16.1873C2.3616 16.1306 2.25272 16.2456 2.25355 16.7249C2.26588 23.9814 2.26874 31.2378 2.24827 38.4942C2.24681 39.007 2.42026 39.2658 2.82719 39.5069C6.17203 41.489 9.50545 43.4913 12.8469 45.4794C13.0411 45.595 13.2174 45.7845 13.5072 45.7641C13.5072 45.5657 13.5072 45.3799 13.5072 45.1941C13.5072 43.6714 13.5025 42.1486 13.5091 40.6259C13.5129 39.756 13.9411 39.2488 14.6364 39.2619C15.3262 39.275 15.7187 39.7507 15.7234 40.6002C15.7294 41.6717 15.7252 42.7433 15.7253 43.8149C15.7254 44.465 15.7253 45.1151 15.7253 45.821ZM0.0051885 27.3606C0.0051885 23.3008 0.0102413 19.241 8.60145e-06 15.1813C-0.0016121 14.5334 0.225668 14.0996 0.793899 13.7704C2.64252 12.6995 4.46562 11.5824 6.30299 10.4909C6.59106 10.3198 6.78808 10.1415 6.75024 9.74988C6.6596 8.81234 7.12179 8.26345 7.90913 7.80103C12.1023 5.33826 16.2672 2.8245 20.4412 0.327351C20.7604 0.136402 21.0781 -0.0304222 21.4707 0.00462723C22.025 0.0541191 22.371 0.395531 22.4398 0.963112C22.535 1.75043 22.4368 2.5355 22.4385 3.32148C22.4407 4.37077 22.443 5.42005 22.4371 6.46933C22.4355 6.74757 22.5165 6.96723 22.7055 7.17728C24.7538 9.45361 26.79 11.7414 28.8412 14.015C29.1109 14.3139 29.227 14.6365 29.2269 15.0296C29.2241 23.2244 29.2218 31.4192 29.2253 39.614C29.2256 40.2161 29.0035 40.6254 28.4783 40.9373C24.1066 43.5339 19.7445 46.1475 15.3845 48.7648C14.8531 49.0838 14.3683 49.0754 13.8389 48.7572C9.51131 46.1565 5.18359 43.5561 0.839246 40.9852C0.231134 40.6254 0.0025191 40.1703 0.00455293 39.4834C0.0165016 35.4425 0.0104319 31.4015 0.0104319 27.3606C0.00868416 27.3606 0.00693632 27.3606 0.0051885 27.3606Z" fill="#5AA9E1"/>
<path d="M121.759 23.2829C122.596 22.2706 123.547 21.5597 124.794 21.2951C126.566 20.9192 127.985 21.529 128.906 23.1194C129.127 23.5011 129.221 23.3302 129.381 23.1055C130.551 21.4707 132.151 20.9871 134.037 21.3026C135.465 21.5415 136.282 22.465 136.69 23.8339C136.911 24.5778 136.979 25.347 136.984 26.1168C136.999 28.4855 136.978 30.8546 137 33.2233C137.004 33.6611 136.867 33.7613 136.467 33.7483C135.57 33.7191 134.671 33.7194 133.774 33.7482C133.379 33.7607 133.284 33.6244 133.287 33.2369C133.305 31.1501 133.296 29.0631 133.295 26.9762C133.295 26.525 133.287 26.0764 133.18 25.6328C132.99 24.8503 132.56 24.3118 131.76 24.178C130.981 24.0477 130.355 24.3401 129.906 25.0036C129.502 25.5981 129.39 26.2735 129.392 26.985C129.399 29.0343 129.377 31.0839 129.406 33.1327C129.414 33.6374 129.276 33.7748 128.795 33.7508C127.954 33.7089 127.108 33.7128 126.266 33.7499C125.818 33.7696 125.677 33.648 125.683 33.1687C125.709 31.0257 125.695 28.8821 125.696 26.7389C125.696 26.3999 125.676 26.0658 125.602 25.7319C125.386 24.7477 124.897 24.2434 124.053 24.156C123.209 24.0685 122.435 24.5437 122.073 25.3737C121.798 26.0077 121.765 26.6855 121.762 27.362C121.753 29.2984 121.748 31.235 121.766 33.1713C121.771 33.5891 121.694 33.7709 121.234 33.7507C120.338 33.7114 119.437 33.727 118.541 33.7456C118.22 33.7523 118.094 33.6803 118.095 33.3149C118.109 29.536 118.109 25.757 118.095 21.9781C118.094 21.6161 118.213 21.5382 118.537 21.5449C119.472 21.5642 120.407 21.5669 121.341 21.5439C121.693 21.5353 121.781 21.6729 121.764 22.0025C121.742 22.4283 121.759 22.8559 121.759 23.2829Z" fill="#59A9E2"/>
<path d="M47.5207 24.7365C49.091 22.0957 50.7467 19.6891 52.2967 17.212C52.5489 16.8089 52.8187 16.6779 53.2712 16.6895C54.5136 16.7218 55.7573 16.7007 57.1089 16.7007C56.7346 17.2364 56.4147 17.7034 56.0859 18.1637C54.603 20.24 53.128 22.3223 51.6234 24.3819C51.3614 24.7404 51.3985 24.9576 51.6396 25.2945C53.5467 27.9602 55.4342 30.6407 57.327 33.317C57.4012 33.4219 57.4692 33.5312 57.5411 33.64C57.424 33.8119 57.2646 33.7342 57.135 33.735C55.8706 33.742 54.6059 33.7236 53.342 33.749C52.9806 33.7563 52.7825 33.6236 52.5902 33.3266C51.1106 31.0424 49.6132 28.7702 48.1277 26.4898C47.9475 26.2131 47.8055 25.9101 47.6376 25.6044C47.44 25.7976 47.5258 26.0159 47.5252 26.2067C47.5182 28.4998 47.5001 30.7933 47.5352 33.0858C47.5439 33.6529 47.3737 33.777 46.8594 33.7513C45.982 33.7074 45.1003 33.7215 44.2215 33.7475C43.8518 33.7584 43.7627 33.628 43.7633 33.2666C43.7732 27.8909 43.773 22.5152 43.7635 17.1396C43.7628 16.7938 43.8612 16.6859 44.1981 16.6936C45.1139 16.7144 46.0314 16.7253 46.9463 16.6902C47.3941 16.6729 47.5376 16.7902 47.5321 17.2726C47.5063 19.5278 47.5207 21.7835 47.5207 24.039C47.5207 24.2237 47.5207 24.4084 47.5207 24.7365Z" fill="#59A9E2"/>
<path d="M111.309 31.8785C111.147 32.0895 111.082 32.1727 111.018 32.2579C109.843 33.8495 108.175 34.4371 106.3 33.9199C104.753 33.4934 103.767 32.1898 103.592 30.2743C103.374 27.8743 103.538 25.4666 103.501 23.0627C103.492 22.5806 103.294 21.9568 103.592 21.6512C103.889 21.3459 104.496 21.569 104.967 21.555C105.516 21.5386 106.068 21.5801 106.616 21.542C107.062 21.5111 107.209 21.6412 107.203 22.1234C107.176 24.2281 107.19 26.3335 107.193 28.4385C107.194 28.8132 107.187 29.1877 107.277 29.5588C107.518 30.5521 108.048 31.0541 108.963 31.1325C109.883 31.2113 110.686 30.7379 111.059 29.8961C111.269 29.4231 111.311 28.9225 111.31 28.4102C111.306 26.3239 111.327 24.2373 111.295 22.1515C111.288 21.637 111.44 21.5197 111.912 21.5399C112.808 21.5786 113.707 21.5628 114.604 21.5449C114.918 21.5386 115.011 21.6457 115.01 21.9634C115.002 25.76 115.002 29.5568 115.01 33.3535C115.01 33.6454 114.922 33.7485 114.633 33.7445C113.644 33.7309 112.654 33.7293 111.664 33.7451C111.355 33.7501 111.297 33.6073 111.305 33.336C111.319 32.905 111.309 32.4732 111.309 31.8785Z" fill="#5AA9E1"/>
<path d="M63.9326 26.4023C64.5355 26.4023 65.1382 26.4036 65.741 26.4013C65.901 26.4008 66.0494 26.4279 66.0882 26.1695C66.2319 25.2119 65.5426 24.1199 64.6197 23.8862C63.3052 23.5534 61.8102 24.7428 61.7778 26.1278C61.7706 26.4378 61.9438 26.4014 62.1244 26.4018C62.7272 26.4032 63.3299 26.4023 63.9326 26.4023ZM68.4761 30.3424C68.4761 31.256 68.4714 32.0625 68.4795 32.8688C68.4815 33.0671 68.4067 33.1947 68.2365 33.2623C65.6212 34.3002 63.0013 34.5985 60.4738 33.0603C59.1551 32.2578 58.4873 30.9344 58.2518 29.3985C57.9602 27.4975 58.0744 25.6492 59.0866 23.9586C60.8096 21.0808 65.036 20.2629 67.5802 22.3214C68.8626 23.3591 69.3633 24.8039 69.4796 26.416C69.5201 26.9771 69.469 27.5449 69.5065 28.1064C69.5355 28.5419 69.4121 28.6788 68.9677 28.6738C66.7508 28.6493 64.5333 28.6758 62.3163 28.6524C61.8297 28.6472 61.719 28.7866 61.8362 29.2606C62.1604 30.5715 63.1007 31.2869 64.6681 31.3573C65.9973 31.4168 67.2435 31.1147 68.4761 30.3424Z" fill="#59A9E2"/>
<path d="M72.6735 29.0577C72.6735 27.7605 72.6736 26.4634 72.6735 25.1663C72.6735 24.3758 72.6734 24.3758 71.8748 24.3758C71.5999 24.3758 71.3245 24.3658 71.0502 24.3784C70.8098 24.3893 70.6756 24.3321 70.6813 24.042C70.6955 23.328 70.6947 22.6132 70.6814 21.8991C70.6763 21.6247 70.7804 21.5386 71.0359 21.548C71.4385 21.563 71.8434 21.5313 72.2449 21.558C72.5814 21.5803 72.6894 21.4673 72.682 21.1158C72.668 20.4595 72.6311 19.7895 72.7345 19.1473C73.0926 16.9237 74.7423 15.4874 77.0186 15.3596C77.7145 15.3205 78.4073 15.3282 79.0867 15.5469C79.3593 15.6346 79.4737 15.7659 79.4672 16.0635C79.4514 16.7776 79.4441 17.4929 79.4692 18.2063C79.4829 18.5966 79.3335 18.5961 79.0551 18.4796C78.9042 18.4163 78.7402 18.3821 78.5796 18.3469C77.2352 18.0522 76.3852 18.7201 76.3215 20.1184C76.2562 21.5517 76.2563 21.5422 77.6421 21.5571C78.0933 21.562 78.6772 21.3473 78.9614 21.6542C79.2411 21.9564 79.0411 22.5503 79.0451 23.0152C79.0571 24.3758 79.0494 24.3758 77.7057 24.3758C76.3172 24.3758 76.3172 24.3758 76.3172 25.8022C76.3172 28.2836 76.3087 30.7653 76.3259 33.2467C76.3287 33.6437 76.2201 33.7602 75.8346 33.7481C74.9374 33.72 74.0381 33.7178 73.141 33.7489C72.7348 33.763 72.6606 33.6058 72.6659 33.2311C72.6851 31.8402 72.6735 30.4489 72.6735 29.0577Z" fill="#59A9E2"/>
<path d="M91.2626 23.5712C91.3765 23.3425 91.4847 23.1101 91.6059 22.8855C92.26 21.6729 93.4372 21.0615 94.7738 21.2214C95.1358 21.2647 95.3229 21.3977 95.3083 21.8224C95.279 22.7041 95.2928 23.5876 95.3034 24.4702C95.3075 24.7645 95.2302 24.829 94.9568 24.7155C94.4394 24.5011 93.8935 24.4255 93.3404 24.516C92.1982 24.7029 91.409 25.6696 91.2618 27.0172C91.1129 28.3847 91.2097 29.7563 91.1861 31.1258C91.1731 31.8581 91.1715 32.5911 91.1894 33.3231C91.1967 33.6366 91.104 33.7513 90.7867 33.7453C89.8536 33.7273 88.9188 33.7167 87.9857 33.7492C87.5684 33.7637 87.5195 33.5861 87.5212 33.224C87.5342 30.6698 87.5285 28.1156 87.5285 25.5614C87.5285 24.3781 87.5423 23.1947 87.5195 22.0118C87.513 21.6372 87.6277 21.5348 87.9833 21.5437C88.9164 21.5671 89.8511 21.5631 90.7842 21.5454C91.0983 21.5394 91.2016 21.6466 91.1894 21.9641C91.1682 22.4891 91.1837 23.0156 91.1837 23.5414C91.2097 23.5513 91.2357 23.5613 91.2626 23.5712Z" fill="#59A9E2"/>
<path d="M80.8192 27.6433C80.8192 25.8007 80.8301 23.958 80.8109 22.1157C80.8065 21.6997 80.8761 21.5181 81.3394 21.5395C82.2357 21.5809 83.1354 21.5634 84.0336 21.5454C84.3533 21.5389 84.4834 21.6128 84.4818 21.9777C84.4696 25.7568 84.4696 29.536 84.4826 33.315C84.4835 33.684 84.346 33.7508 84.0303 33.7449C83.1322 33.7282 82.2324 33.709 81.3364 33.7515C80.8668 33.7737 80.8073 33.5808 80.8113 33.1709C80.8294 31.3285 80.8192 29.4859 80.8192 27.6433Z" fill="#59A9E2"/>
<path d="M100.642 27.6441C100.642 29.4866 100.631 31.3293 100.651 33.1717C100.655 33.59 100.577 33.7708 100.117 33.7507C99.2205 33.7115 98.3207 33.7269 97.4234 33.7457C97.1021 33.7524 96.9776 33.6791 96.9784 33.3144C96.9914 29.5353 96.9914 25.7561 96.9784 21.9771C96.9776 21.6135 97.0988 21.5382 97.4218 21.545C98.3378 21.5641 99.2555 21.572 100.171 21.5423C100.573 21.5293 100.653 21.6833 100.65 22.06C100.633 23.9212 100.642 25.7827 100.642 27.6441Z" fill="#59A9E2"/>
<path d="M98.8675 20.1333C97.7717 20.1378 97.0777 19.3969 97.2006 18.35C97.2111 18.2626 97.2307 18.1745 97.2591 18.0917C97.513 17.3631 98.3541 16.9543 99.2441 17.1241C100.067 17.281 100.547 17.8862 100.509 18.7185C100.472 19.5513 99.8006 20.1294 98.8675 20.1333Z" fill="#5AA9E1"/>
<path d="M82.6977 20.1333C81.601 20.1378 80.9077 19.3969 81.0307 18.35C81.0409 18.2626 81.0601 18.1745 81.089 18.0917C81.3429 17.3631 82.1835 16.9543 83.0735 17.1241C83.896 17.281 84.3768 17.8862 84.3394 18.7185C84.302 19.5513 83.6308 20.1294 82.6977 20.1333Z" fill="#5AA9E1"/>
<path d="M83.8302 41.985C84.6697 41.9802 85.2579 41.3639 85.2652 40.4829C85.2717 39.609 84.6835 39.0151 83.8098 39.014C82.9239 39.0129 82.3455 39.5883 82.3471 40.4683C82.3495 41.3656 82.9597 41.9899 83.8302 41.985ZM82.2592 39.3312C82.8995 38.6072 83.5999 38.3361 84.4436 38.5628C85.2343 38.775 85.7541 39.3813 85.8363 40.2516C85.9136 41.0648 85.624 41.738 84.9349 42.1716C83.6731 42.9652 82.1762 42.3505 81.8028 40.8885C81.6239 40.1886 81.6369 39.4747 81.789 38.768C81.9924 37.8203 82.5619 37.2043 83.46 36.9325C84.0384 36.7575 84.6331 36.6419 85.2197 36.4948C85.3905 36.4518 85.5353 36.414 85.5996 36.6579C85.6679 36.9181 85.541 36.9825 85.3303 37.0299C84.7413 37.1629 84.1474 37.2843 83.5698 37.4606C82.7384 37.7143 82.3357 38.2814 82.2592 39.3312Z" fill="#5AA9E1"/>
<path d="M44.9728 38.0886C44.9728 39.4075 44.9753 40.6847 44.9703 41.9619C44.9694 42.1664 45.0592 42.4346 44.6836 42.4264C44.301 42.418 44.4201 42.1363 44.4191 41.9434C44.4111 40.4405 44.4093 38.9373 44.4218 37.4345C44.4232 37.2572 44.2851 36.9948 44.5656 36.906C44.8102 36.8284 44.9606 36.9849 45.1092 37.179C46.0701 38.434 47.043 39.6794 48.0126 40.9274C48.0916 41.0291 48.1755 41.1266 48.2598 41.2295C48.452 41.1247 48.3611 40.9563 48.362 40.8298C48.3706 39.6463 48.3663 38.4627 48.3682 37.279C48.3685 37.0977 48.3239 36.8999 48.6197 36.8897C48.9347 36.8789 48.9199 37.0732 48.9196 37.2905C48.9176 38.8123 48.9233 40.3341 48.9125 41.8559C48.9112 42.04 49.0356 42.2996 48.7866 42.4019C48.5215 42.5108 48.3551 42.3249 48.1975 42.1189C47.2487 40.8778 46.2918 39.6432 45.3361 38.4076C45.2491 38.2952 45.1982 38.1424 44.9728 38.0886Z" fill="#5AA9E1"/>
<path d="M76.0889 40.382C76.1051 39.4452 75.4502 38.7177 74.5924 38.7196C73.7202 38.7215 73.1081 39.3721 73.097 40.309C73.0854 41.2954 73.6767 41.9589 74.5723 41.9643C75.4254 41.9696 76.0731 41.2938 76.0889 40.382ZM73.0961 41.8265C73.0961 42.4699 73.0961 43.0283 73.0961 43.5867C73.0961 43.7771 73.1166 43.9683 72.8356 43.9781C72.5297 43.9889 72.5286 43.7894 72.5287 43.5707C72.5294 41.9747 72.5247 40.3788 72.5344 38.7829C72.5355 38.5899 72.4131 38.2975 72.7755 38.2651C73.1891 38.228 73.0499 38.5576 73.0943 38.7669C73.1013 38.7995 73.1256 38.8282 73.1423 38.8584C74.3484 38.0111 75.3902 38.0388 76.1666 38.9386C76.8201 39.6958 76.812 40.9903 76.1489 41.7937C75.4628 42.6251 74.3313 42.6627 73.0961 41.8265Z" fill="#5AA9E1"/>
<path d="M92.5431 41.3757C93.3078 40.4483 94.0717 39.521 94.8364 38.5935C94.9893 38.4076 95.1325 38.1794 95.4181 38.2749C95.7175 38.375 95.5897 38.6536 95.5922 38.8522C95.6052 39.9039 95.5995 40.9559 95.5971 42.0078C95.5971 42.2062 95.6491 42.4274 95.3188 42.4285C95.0072 42.4294 95.0194 42.2404 95.0203 42.0228C95.0227 41.1267 95.0211 40.2307 95.0211 39.1666C94.4605 39.8468 93.996 40.4088 93.5331 40.9721C93.2028 41.3737 92.8701 41.7727 92.5488 42.1819C92.395 42.3776 92.2111 42.4829 91.9777 42.4088C91.7271 42.3292 91.8385 42.0912 91.8369 41.9251C91.8263 40.8546 91.8312 39.7838 91.832 38.7132C91.8328 38.4925 91.78 38.245 92.1396 38.2604C92.4658 38.2744 92.4048 38.5111 92.4064 38.7037C92.4121 39.5829 92.4088 40.4622 92.4088 41.3415C92.4536 41.3529 92.4983 41.3642 92.5431 41.3757Z" fill="#5AA9E1"/>
<path d="M67.5223 40.4981C67.2885 40.5232 66.9743 40.4552 66.6748 40.5838C66.1436 40.8119 66.0471 41.4388 66.4905 41.8004C67.0152 42.2286 68.1089 41.9841 68.4156 41.3702C68.6979 40.8054 68.5259 40.5 67.9246 40.4981C67.815 40.4979 67.7053 40.4981 67.5223 40.4981ZM68.5342 41.885C67.9105 42.4486 67.3014 42.5601 66.6421 42.4119C66.07 42.2834 65.6769 41.8239 65.6595 41.2823C65.6413 40.7164 65.9735 40.3201 66.6018 40.1443C67.1069 40.0029 67.6215 40.0707 68.1306 40.0763C68.4675 40.08 68.5442 39.937 68.5022 39.6389C68.4378 39.1825 68.2103 38.8794 67.7549 38.7869C67.2506 38.6845 66.7713 38.7651 66.321 39.0133C66.1561 39.1042 66.0084 39.2291 65.8745 38.9708C65.7306 38.6935 65.9703 38.6516 66.1103 38.5687C66.7104 38.2134 67.3636 38.1561 68.0234 38.3032C68.6516 38.4432 69.0372 38.9655 69.0529 39.6567C69.07 40.407 69.068 41.1583 69.0515 41.9085C69.0477 42.0814 69.1917 42.3469 68.88 42.4157C68.5615 42.486 68.4741 42.2795 68.5342 41.885Z" fill="#5AA9E1"/>
<path d="M50.6767 39.6246C50.6768 38.854 50.6881 38.0832 50.6712 37.313C50.6644 37.0067 50.7387 36.8804 51.0649 36.8868C52.0539 36.9064 53.0437 36.8934 54.0331 36.8944C54.1963 36.8946 54.3715 36.8665 54.3854 37.1262C54.4002 37.4035 54.2376 37.4233 54.034 37.4224C53.2462 37.419 52.4579 37.4353 51.6705 37.4148C51.3313 37.4059 51.2167 37.5266 51.2363 37.8685C51.2599 38.2806 51.2583 38.6961 51.2369 39.1083C51.2193 39.4473 51.3326 39.5763 51.673 39.5651C52.332 39.5436 52.9922 39.5563 53.6518 39.561C53.8261 39.5623 54.0412 39.5125 54.0534 39.8066C54.0672 40.1368 53.8347 40.0936 53.6375 40.0945C52.9962 40.0974 52.3543 40.1117 51.7137 40.0894C51.3633 40.0773 51.2142 40.1838 51.2356 40.5641C51.262 41.0323 51.245 41.5034 51.2402 41.9733C51.2381 42.1858 51.3118 42.4401 50.941 42.4275C50.6044 42.4161 50.6803 42.1822 50.679 41.9927C50.6736 41.2034 50.6767 40.414 50.6767 39.6246Z" fill="#5AA9E1"/>
<path d="M79.1422 41.6309C79.5758 40.6339 80.0251 39.6326 80.4442 38.6182C80.5796 38.2904 80.7595 38.1876 81.1239 38.3228C80.6404 39.4375 80.1618 40.5464 79.6784 41.6531C79.4469 42.1831 79.2316 42.7232 78.9633 43.2334C78.5767 43.9686 77.8254 44.2114 77.1407 43.8576C76.9867 43.778 76.7772 43.7176 76.8843 43.4506C76.9926 43.1803 77.1249 43.2959 77.3066 43.3801C77.6776 43.5523 78.0786 43.5862 78.357 43.2188C78.6205 42.871 78.8694 42.522 78.6178 41.9994C78.1086 40.9412 77.6575 39.8531 77.2002 38.7696C77.1394 38.6257 76.8758 38.4111 77.1767 38.2795C77.4306 38.1684 77.5997 38.3299 77.7116 38.6C78.0974 39.5311 78.5073 40.4517 78.91 41.3754C78.9529 41.4739 78.968 41.5998 79.1422 41.6309Z" fill="#5AA9E1"/>
<path d="M90.2855 40.3901C90.2855 40.9343 90.2847 41.4785 90.2855 42.0227C90.2864 42.2322 90.3156 42.4424 89.9935 42.4259C89.7031 42.4112 89.7437 42.214 89.7429 42.0315C89.7413 41.1307 89.725 40.2294 89.7502 39.3293C89.7608 38.9319 89.6803 38.773 89.2459 38.7754C87.814 38.7836 87.8181 38.7643 87.7384 40.2356C87.7083 40.7978 87.6489 41.3593 87.4235 41.8822C87.2429 42.3017 86.9452 42.54 86.4717 42.4555C86.3611 42.4359 86.2496 42.4073 86.2529 42.2567C86.2553 42.1237 86.2561 41.9796 86.4343 41.9663C86.9346 41.9287 87.0339 41.5397 87.1112 41.1451C87.2673 40.3509 87.2674 39.541 87.2991 38.7368C87.3129 38.3779 87.404 38.2412 87.7709 38.2548C88.4836 38.2815 89.1979 38.2735 89.9105 38.2576C90.1969 38.2512 90.2986 38.3507 90.2904 38.6449C90.2733 39.2262 90.2855 39.8083 90.2855 40.3901Z" fill="#5AA9E1"/>
<path d="M56.629 39.8861C56.6288 39.1921 56.6185 38.498 56.6336 37.8044C56.6401 37.5097 56.5351 37.4055 56.2524 37.4172C55.8509 37.4337 55.448 37.4165 55.0459 37.4215C54.8463 37.424 54.7423 37.3572 54.7454 37.1303C54.7484 36.9127 54.8708 36.8936 55.0317 36.8938C56.2933 36.8949 57.5549 36.8964 58.8165 36.8917C59.019 36.8909 59.1243 36.9558 59.1151 37.1806C59.1067 37.3881 58.984 37.4219 58.8211 37.421C58.492 37.4194 58.1588 37.4543 57.8346 37.4134C57.3059 37.3467 57.1929 37.5839 57.2046 38.0812C57.2347 39.3558 57.2199 40.6316 57.2093 41.9069C57.2075 42.1124 57.3456 42.4245 56.9246 42.4265C56.5062 42.4284 56.6378 42.1214 56.634 41.9115C56.6214 41.2366 56.6292 40.5613 56.629 39.8861Z" fill="#5AA9E1"/>
<path d="M64.0403 40.2439C64.5573 40.5167 64.9128 40.8651 64.7623 41.462C64.6089 42.0707 64.113 42.2918 63.5778 42.4132C62.932 42.5596 62.3044 42.4682 61.7067 42.1762C61.5363 42.0929 61.3675 42.0031 61.4625 41.7556C61.5955 41.4087 61.7616 41.6991 61.8907 41.748C62.4713 41.9681 63.0546 42.0889 63.6564 41.859C63.9836 41.734 64.2462 41.5321 64.2107 41.1209C64.1766 40.7259 63.8699 40.6103 63.5628 40.535C63.3704 40.4879 63.1603 40.5206 62.9638 40.4846C62.781 40.4511 62.4562 40.6348 62.4638 40.2572C62.4706 39.9237 62.7689 40.0816 62.9389 40.0665C63.1938 40.0438 63.4499 40.0569 63.6925 39.9481C63.9267 39.8429 64.1034 39.692 64.0999 39.4077C64.0964 39.1291 63.9286 38.9593 63.6957 38.8573C63.1366 38.6124 62.5854 38.7172 62.0372 38.9101C61.8783 38.966 61.6987 39.1136 61.6066 38.8121C61.5304 38.5632 61.7185 38.5339 61.8601 38.4646C62.3753 38.2122 62.9257 38.1918 63.473 38.2639C63.9775 38.3302 64.4573 38.5129 64.6304 39.0698C64.7943 39.5976 64.5019 39.9553 64.0403 40.2439Z" fill="#5AA9E1"/>
<path d="M83.8301 41.9851C82.9596 41.9899 82.3495 41.3657 82.347 40.4684C82.3454 39.5883 82.9238 39.013 83.8098 39.0141C84.6835 39.0152 85.2717 39.609 85.2652 40.483C85.2579 41.364 84.6697 41.9803 83.8301 41.9851Z" fill="white"/>
<path d="M76.0889 40.382C76.0732 41.2938 75.4255 41.9696 74.5723 41.9643C73.6767 41.9589 73.0855 41.2954 73.0971 40.309C73.1082 39.3721 73.7203 38.7215 74.5924 38.7196C75.4502 38.7177 76.1052 39.4452 76.0889 40.382Z" fill="white"/>
<path d="M67.5223 40.4981C67.7053 40.4981 67.815 40.4979 67.9245 40.4981C68.5259 40.5 68.6979 40.8054 68.4156 41.3703C68.1089 41.9841 67.0152 42.2286 66.4904 41.8005C66.0471 41.4388 66.1436 40.8119 66.6748 40.5839C66.9743 40.4553 67.2885 40.5233 67.5223 40.4981Z" fill="white"/>
</g>
<defs>
<clipPath id="clip0_1_136">
<rect width="137" height="49" fill="white"/>
</clipPath>
</defs>
</svg>
