<?xml version="1.0" encoding="UTF-8" standalone="no"?>
<svg
   xmlns:dc="http://purl.org/dc/elements/1.1/"
   xmlns:cc="http://creativecommons.org/ns#"
   xmlns:rdf="http://www.w3.org/1999/02/22-rdf-syntax-ns#"
   xmlns:svg="http://www.w3.org/2000/svg"
   xmlns="http://www.w3.org/2000/svg"
   viewBox="0 0 2245.3601 782.85333"
   height="782.85333"
   width="2245.3601"
   xml:space="preserve"
   id="svg2"
   version="1.1"><metadata
     id="metadata8"><rdf:RDF><cc:Work
         rdf:about=""><dc:format>image/svg+xml</dc:format><dc:type
           rdf:resource="http://purl.org/dc/dcmitype/StillImage" /></cc:Work></rdf:RDF></metadata><defs
     id="defs6" /><g
     transform="matrix(1.3333333,0,0,-1.3333333,0,782.85333)"
     id="g10"><g
       transform="scale(0.1)"
       id="g12"><path
         id="path14"
         style="fill:#5aa9e1;fill-opacity:1;fill-rule:nonzero;stroke:none"
         d="m 589.266,4187.58 c 44.449,-5.51 71.019,-10.55 97.773,-11.85 180.496,-8.75 144.152,-35.15 142.641,147.5 -9.055,-3.16 -17.75,-4.73 -24.922,-8.91 C 737.5,4275.11 670.5,4235.45 589.266,4187.58 Z m 516.364,191.5 c 0,-51.81 5.36,-104.3 -1.13,-155.28 -13.18,-103.64 21.02,-180.77 94.68,-256.69 200.54,-206.69 392.96,-421.3 587.06,-634.17 28.32,-31.06 50.72,-33.98 85.64,-11.99 70.44,44.36 143.35,84.8 215.3,126.76 367.43,214.25 734.85,428.49 1102.35,642.61 25.47,14.84 55.36,22.82 19.2,61.44 -190.76,203.71 -380.45,408.44 -568,615.1 -33.33,36.73 -56.64,34.39 -95.96,11.14 -261.53,-154.62 -524.6,-306.62 -787.18,-459.47 -79.75,-46.42 -158.89,-93.95 -239.5,-138.85 -52.16,-29.06 -106.27,-36.09 -159.41,0.43 -52.08,35.79 -57.83,88.11 -50.87,144.21 6.66,53.66 47.81,78.2 89.36,102.4 346.14,201.64 691.85,404.01 1038.62,604.56 37.34,21.6 55.03,44.54 53.39,89.85 -3.66,101.23 -0.92,202.68 -1.17,304.05 -0.16,65.48 -6.08,69.2 -62.69,36.21 -427.75,-249.24 -855.17,-499.07 -1283.36,-747.58 -27.39,-15.9 -37.34,-33.99 -36.88,-64.43 1.39,-90.08 0.5,-180.19 0.55,-270.3 z M 1932.97,380.922 c 16.33,6.07 24.72,7.898 31.79,12.008 437.7,254.519 875.21,509.359 1313.09,763.58 28.97,16.82 36.61,39.12 38.84,71.57 11.44,166.66 -3.11,333.11 -0.82,499.67 3.2,231.76 3.82,463.57 3.81,695.36 -0.01,222.78 -3.31,445.57 -3.2,668.36 0.13,227.28 3.41,454.57 3.65,681.86 0.07,64.4 -9.09,67.82 -64.32,35.6 -421.83,-246.09 -843.36,-492.7 -1266.12,-737.16 -42.44,-24.54 -58.12,-51.27 -57.89,-100.66 2.03,-441.51 1.2,-883.03 1.14,-1324.55 -0.01,-31.53 1.67,-63.27 -1.35,-94.54 -8.9,-92.11 -93.17,-145.56 -180.41,-115.94 -64.63,21.94 -90.8,67.84 -90.84,162.94 -0.21,466.3 -0.46,932.6 0.51,1398.89 0.09,42.46 -8.55,75.05 -39.52,108.2 -232,248.42 -461.74,498.95 -691.01,749.89 -18.41,20.16 -36.238,29.13 -62.797,31.18 -172.71,13.38 -345.683,24.93 -517.714,44.58 -59.52,6.79 -72.903,-6.99 -72.801,-64.42 1.515,-869.5 1.867,-1739 -0.649,-2608.49 -0.179,-61.45 21.141,-92.46 71.161,-121.35 411.152,-237.5 820.9,-477.43 1231.64,-715.648 23.87,-13.852 45.54,-36.563 81.16,-34.122 0,23.782 0,46.04 0,68.301 0,182.461 -0.58,364.93 0.23,547.389 0.47,104.23 53.11,165.01 138.57,163.44 84.79,-1.57 133.04,-58.57 133.62,-160.36 0.74,-128.391 0.22,-256.801 0.23,-385.199 0.01,-77.899 0,-155.801 0,-240.379 z M 0.636719,2592.93 c 0,486.46 0.621091,972.92 -0.636719,1459.37 -0.199219,77.64 27.7383,129.62 97.5859,169.06 227.2341,128.32 451.3321,262.18 677.1841,392.97 35.41,20.5 59.628,41.86 54.976,88.79 -11.141,112.34 45.672,178.11 142.453,233.52 515.431,295.1 1027.381,596.31 1540.451,895.53 39.24,22.88 78.29,42.87 126.55,38.67 68.14,-5.93 110.67,-46.84 119.12,-114.85 11.71,-94.34 -0.36,-188.41 -0.16,-282.59 0.28,-125.73 0.56,-251.46 -0.17,-377.19 -0.19,-33.34 9.76,-59.66 32.99,-84.83 251.79,-272.76 502.08,-546.89 754.21,-819.33 33.15,-35.81 47.42,-74.47 47.41,-121.57 -0.34,-981.94 -0.62,-1963.87 -0.19,-2945.81 0.03,-72.15 -27.27,-121.19 -91.83,-158.561 C 2963.21,654.969 2427.01,341.789 1891.08,28.1719 1825.76,-10.0508 1766.17,-9.03906 1701.09,29.0898 1169.14,340.711 637.172,652.301 103.16,960.359 28.4102,1003.48 0.308594,1058.01 0.558594,1140.31 c 1.468746,484.2 0.722656,968.41 0.722656,1452.62 -0.21484,0 -0.429687,0 -0.644531,0" /><g
         transform="scale(1.03313)"
         id="g16"><path
           id="path18"
           style="fill:#59a9e2;fill-opacity:1;fill-rule:nonzero;stroke:none"
           d="m 14486.8,2982.72 c 99.6,117.41 212.7,199.86 361.1,230.55 210.8,43.6 379.7,-27.13 489.3,-211.59 26.3,-44.27 37.4,-24.44 56.5,1.62 139.2,189.6 329.5,245.69 554,209.1 169.8,-27.71 267.1,-134.82 315.6,-293.58 26.3,-86.28 34.4,-175.5 35,-264.78 1.7,-274.73 -0.7,-549.5 1.9,-824.23 0.5,-50.77 -15.8,-62.4 -63.4,-60.89 -106.8,3.39 -213.7,3.35 -320.5,0.02 -46.9,-1.46 -58.2,14.35 -57.9,59.3 2.2,242.03 1.1,484.08 1,726.12 0,52.33 -1,104.36 -13.7,155.82 -22.6,90.75 -73.8,153.21 -169,168.73 -92.6,15.11 -167.1,-18.81 -220.6,-95.76 -48,-68.95 -61.4,-147.28 -61.1,-229.81 0.8,-237.68 -1.8,-475.39 1.7,-713.02 0.9,-58.54 -15.5,-74.47 -72.8,-71.69 -100,4.86 -200.7,4.41 -300.8,0.11 -53.4,-2.29 -70.1,11.82 -69.4,67.41 3.1,248.55 1.4,497.16 1.5,745.74 0,39.32 -2.4,78.07 -11.1,116.79 -25.8,114.15 -83.9,172.64 -184.3,182.78 -100.5,10.15 -192.6,-44.97 -235.6,-141.23 -32.8,-73.54 -36.7,-152.15 -37,-230.61 -1.1,-224.59 -1.7,-449.2 0.5,-673.78 0.5,-48.45 -8.6,-69.54 -63.4,-67.19 -106.6,4.55 -213.7,2.74 -320.4,0.59 -38.2,-0.78 -53.2,7.57 -53,49.95 1.6,438.28 1.6,876.58 0,1314.87 -0.1,41.98 14,51.02 52.6,50.24 111.2,-2.24 222.5,-2.55 333.6,0.11 41.9,1 52.3,-14.96 50.3,-53.19 -2.6,-49.38 -0.6,-98.98 -0.6,-148.5" /></g><path
         id="path20"
         style="fill:#59a9e2;fill-opacity:1;fill-rule:nonzero;stroke:none"
         d="m 5841.3,2907.36 c 193.02,316.43 396.55,604.8 587.07,901.62 31,48.3 64.17,64 119.79,62.6 152.72,-3.87 305.59,-1.34 471.73,-1.34 -46,-64.19 -85.33,-120.14 -125.74,-175.3 -182.28,-248.79 -363.59,-498.3 -548.54,-745.09 -32.2,-42.96 -27.64,-68.99 1.99,-109.36 234.43,-319.41 466.44,-640.6 699.11,-961.29 9.11,-12.56 17.47,-25.66 26.31,-38.7 -14.39,-20.6 -33.99,-11.29 -49.92,-11.38 -155.42,-0.84 -310.88,1.36 -466.24,-1.68 -44.42,-0.87 -68.77,15.03 -92.41,50.61 -181.87,273.71 -365.94,545.97 -548.53,819.22 -22.16,33.15 -39.61,69.46 -60.25,106.09 -24.29,-23.15 -13.74,-49.31 -13.81,-72.17 -0.86,-274.77 -3.09,-549.58 1.23,-824.28 1.07,-67.95 -19.86,-82.82 -83.07,-79.74 -107.86,5.25 -216.23,3.57 -324.26,0.45 -45.44,-1.31 -56.4,14.32 -56.32,57.62 1.21,644.14 1.19,1288.28 0.02,1932.41 -0.08,41.44 12.01,54.37 53.43,53.45 112.57,-2.5 225.34,-3.81 337.81,0.4 55.04,2.07 72.68,-11.98 72,-69.78 -3.17,-270.23 -1.4,-540.52 -1.4,-810.78 0,-22.14 0,-44.27 0,-83.58" /><path
         id="path22"
         style="fill:#5aa9e1;fill-opacity:1;fill-rule:nonzero;stroke:none"
         d="m 13682.2,2051.57 c -19.9,-25.29 -27.9,-35.26 -35.7,-45.46 -144.5,-190.72 -349.5,-261.12 -580,-199.15 -190.1,51.1 -311.3,207.31 -332.8,436.83 -26.9,287.58 -6.7,576.08 -11.3,864.13 -1,57.76 -25.4,132.51 11.2,169.13 36.6,36.58 111.2,9.85 169.1,11.53 67.5,1.96 135.3,-3.01 202.6,1.55 54.9,3.71 72.9,-11.88 72.2,-69.66 -3.3,-252.2 -1.6,-504.47 -1.2,-756.71 0.1,-44.89 -0.8,-89.77 10.3,-134.24 29.6,-119.02 94.8,-179.17 207.3,-188.56 113.1,-9.44 211.7,47.28 257.6,148.15 25.8,56.68 31,116.66 30.8,178.05 -0.5,249.99 2.1,500.01 -1.8,749.94 -0.9,61.65 17.8,75.71 75.8,73.28 110.2,-4.63 220.7,-2.74 331,-0.59 38.6,0.75 50,-12.08 49.9,-50.15 -1,-454.93 -1,-909.87 -0.1,-1364.81 0.1,-34.98 -10.8,-47.33 -46.3,-46.85 -121.6,1.62 -243.3,1.82 -364.9,-0.08 -38,-0.59 -45.2,16.51 -44.2,49.02 1.7,51.65 0.5,103.39 0.5,174.65" /><path
         id="path24"
         style="fill:#59a9e2;fill-opacity:1;fill-rule:nonzero;stroke:none"
         d="m 7858.68,2707.76 c 74.1,0 148.19,-0.16 222.28,0.11 19.67,0.07 37.92,-3.18 42.69,27.78 17.66,114.74 -67.07,245.59 -180.52,273.59 -161.57,39.88 -345.34,-102.64 -349.32,-268.59 -0.89,-37.15 20.4,-32.79 42.6,-32.84 74.09,-0.16 148.18,-0.06 222.27,-0.05 z m 558.49,-472.13 c 0,-109.47 -0.58,-206.11 0.42,-302.72 0.24,-23.76 -8.95,-39.05 -29.87,-47.15 -321.48,-124.37 -643.52,-160.11 -954.2,24.2 -162.1,96.16 -244.19,254.74 -273.14,438.78 -35.84,227.78 -21.8,449.25 102.62,651.83 211.79,344.83 731.31,442.84 1044.04,196.18 157.64,-124.34 219.18,-297.47 233.48,-490.64 4.98,-67.23 -1.3,-135.27 3.3,-202.55 3.57,-52.18 -11.6,-68.58 -66.23,-67.99 -272.5,2.94 -545.08,-0.23 -817.59,2.57 -59.81,0.62 -73.42,-16.08 -59.02,-72.88 39.85,-157.08 155.44,-242.8 348.11,-251.23 163.38,-7.14 316.57,29.06 468.08,121.6" /><path
         id="path26"
         style="fill:#59a9e2;fill-opacity:1;fill-rule:nonzero;stroke:none"
         d="m 8933.12,2389.58 c 0,155.43 0.01,310.86 0,466.29 0,94.71 -0.01,94.71 -98.18,94.72 -33.79,0 -67.64,1.19 -101.36,-0.31 -29.55,-1.31 -46.05,5.54 -45.34,40.3 1.74,85.56 1.64,171.21 0.01,256.78 -0.63,32.87 12.17,43.19 43.57,42.06 49.49,-1.79 99.26,2.01 148.62,-1.19 41.36,-2.67 54.64,10.87 53.73,52.98 -1.72,78.65 -6.26,158.93 6.45,235.88 44.02,266.44 246.8,438.54 526.61,453.86 85.53,4.68 170.7,3.76 254.21,-22.44 33.5,-10.51 47.57,-26.25 46.77,-61.91 -1.94,-85.56 -2.84,-171.27 0.25,-256.76 1.68,-46.77 -16.69,-46.71 -50.9,-32.74 -18.56,7.58 -38.71,11.68 -58.45,15.89 -165.26,35.32 -269.75,-44.71 -277.58,-212.26 -8.02,-171.75 -8.01,-170.61 162.34,-172.4 55.46,-0.58 127.23,25.15 162.16,-11.63 34.39,-36.21 9.8,-107.37 10.3,-163.08 1.47,-163.03 0.52,-163.03 -164.65,-163.03 -170.67,0 -170.67,0 -170.67,-170.92 0,-297.34 -1.05,-594.7 1.07,-892.03 0.34,-47.58 -13.01,-61.54 -60.39,-60.09 -110.29,3.37 -220.83,3.64 -331.1,-0.09 -49.93,-1.69 -59.05,17.14 -58.41,62.04 2.37,166.67 0.94,333.38 0.94,500.08" /><path
         id="path28"
         style="fill:#59a9e2;fill-opacity:1;fill-rule:nonzero;stroke:none"
         d="m 11218.1,3046.98 c 14,27.41 27.3,55.25 42.2,82.17 80.4,145.29 225.1,218.55 389.4,199.4 44.5,-5.19 67.5,-21.13 65.7,-72.02 -3.6,-105.65 -1.9,-211.52 -0.6,-317.27 0.5,-35.27 -9,-43 -42.6,-29.4 -63.6,25.7 -130.7,34.75 -198.7,23.91 -140.4,-22.4 -237.4,-138.23 -255.5,-299.7 -18.3,-163.87 -6.4,-328.22 -9.3,-492.32 -1.6,-87.74 -1.8,-175.57 0.4,-263.28 0.9,-37.57 -10.5,-51.32 -49.5,-50.59 -114.7,2.15 -229.6,3.42 -344.3,-0.47 -51.3,-1.74 -57.3,19.54 -57.1,62.93 1.6,306.05 0.9,612.11 0.9,918.17 0,141.78 1.7,283.59 -1.1,425.32 -0.8,44.89 13.3,57.16 57,56.09 114.7,-2.8 229.6,-2.32 344.3,-0.2 38.6,0.72 51.3,-12.12 49.8,-50.17 -2.6,-62.91 -0.7,-125.99 -0.7,-189 3.2,-1.19 6.4,-2.38 9.7,-3.57" /><path
         id="path30"
         style="fill:#59a9e2;fill-opacity:1;fill-rule:nonzero;stroke:none"
         d="m 9934.39,2559.05 c 0,220.78 1.34,441.58 -1.03,662.34 -0.54,49.84 8.02,71.61 64.97,69.04 110.17,-4.96 220.77,-2.86 331.17,-0.7 39.3,0.77 55.3,-8.08 55.1,-51.8 -1.5,-452.83 -1.5,-905.67 0.1,-1358.49 0.1,-44.22 -16.8,-52.22 -55.6,-51.52 -110.4,2.01 -221,4.31 -331.14,-0.78 -57.72,-2.66 -65.04,20.45 -64.54,69.57 2.22,220.76 0.97,441.55 0.97,662.34" /><path
         id="path32"
         style="fill:#59a9e2;fill-opacity:1;fill-rule:nonzero;stroke:none"
         d="m 12371,2558.96 c 0,-220.78 -1.3,-441.58 1.1,-662.34 0.5,-50.13 -9.1,-71.79 -65.6,-69.38 -110.2,4.7 -220.8,2.85 -331.1,0.6 -39.5,-0.8 -54.8,7.98 -54.7,51.68 1.6,452.83 1.6,905.67 0,1358.49 -0.1,43.56 14.8,52.58 54.5,51.77 112.6,-2.29 225.4,-3.23 337.9,0.32 49.5,1.56 59.3,-16.89 58.9,-62.03 -2.1,-223.02 -1,-446.07 -1,-669.11" /><path
         id="path34"
         style="fill:#5aa9e1;fill-opacity:1;fill-rule:nonzero;stroke:none"
         d="m 12152.9,3458.95 c -134.7,-0.54 -220,88.24 -204.9,213.68 1.3,10.47 3.7,21.03 7.2,30.95 31.2,87.31 134.6,136.29 244,115.94 101.1,-18.8 160.1,-91.32 155.5,-191.04 -4.6,-99.79 -87.1,-169.07 -201.8,-169.53" /><path
         id="path36"
         style="fill:#5aa9e1;fill-opacity:1;fill-rule:nonzero;stroke:none"
         d="m 10165.3,3458.95 c -134.8,-0.54 -220.02,88.24 -204.91,213.68 1.26,10.47 3.62,21.03 7.17,30.95 31.21,87.31 134.54,136.29 243.94,115.94 101.1,-18.8 160.2,-91.32 155.6,-191.04 -4.6,-99.79 -87.1,-169.07 -201.8,-169.53" /><path
         id="path38"
         style="fill:#5aa9e1;fill-opacity:1;fill-rule:nonzero;stroke:none"
         d="m 10304.5,840.551 c 103.2,0.57 175.5,74.418 176.4,179.989 0.8,104.72 -71.5,175.88 -178.9,176.01 -108.9,0.13 -180,-68.81 -179.8,-174.26 0.3,-107.52 75.3,-182.321 182.3,-181.739 z m -193.1,317.989 c 78.7,86.75 164.8,119.24 268.5,92.08 97.2,-25.43 161.1,-98.08 171.2,-202.36 9.5,-97.44 -26.1,-178.108 -110.8,-230.069 -155.1,-95.089 -339.1,-21.441 -385,153.75 -22,83.869 -20.4,169.409 -1.7,254.089 25,113.55 95,187.37 205.4,219.94 71.1,20.97 144.2,34.82 216.3,52.44 21,5.15 38.8,9.68 46.7,-19.54 8.4,-31.18 -7.2,-38.9 -33.1,-44.58 -72.4,-15.93 -145.4,-30.48 -216.4,-51.6 -102.2,-30.4 -151.7,-98.36 -161.1,-224.15" /><path
         id="path40"
         style="fill:#5aa9e1;fill-opacity:1;fill-rule:nonzero;stroke:none"
         d="m 5528.1,1307.46 c 0,-158.04 0.31,-311.081 -0.31,-464.12 -0.1,-24.5 10.93,-56.641 -35.24,-55.649 -47.02,1 -32.39,34.75 -32.51,57.868 -0.98,180.091 -1.2,360.201 0.33,540.281 0.18,21.24 -16.8,52.68 17.68,63.33 30.07,9.29 48.55,-9.46 66.82,-32.72 118.12,-150.38 237.71,-299.61 356.89,-449.149 9.71,-12.18 20.02,-23.871 30.39,-36.199 23.62,12.558 12.45,32.738 12.56,47.89 1.06,141.818 0.53,283.648 0.76,425.478 0.03,21.72 -5.45,45.43 30.92,46.65 38.72,1.29 36.89,-21.99 36.86,-48.03 -0.25,-182.35 0.45,-364.7 -0.87,-547.039 -0.16,-22.059 15.13,-53.172 -15.48,-65.43 -32.59,-13.051 -53.04,9.231 -72.41,33.91 -116.63,148.711 -234.26,296.649 -351.73,444.709 -10.69,13.46 -16.95,31.77 -44.66,38.22" /><path
         id="path42"
         style="fill:#5aa9e1;fill-opacity:1;fill-rule:nonzero;stroke:none"
         d="m 9352.94,1032.63 c 2,112.25 -78.51,199.43 -183.95,199.2 -107.21,-0.23 -182.45,-78.19 -183.81,-190.45 -1.43,-118.2 71.25,-197.7 181.34,-198.349 104.87,-0.629 184.48,80.34 186.42,189.599 z M 8985.07,859.539 c 0,-77.09 0,-144 -0.01,-210.906 0,-22.824 2.52,-45.723 -32.01,-46.903 -37.61,-1.289 -37.74,22.61 -37.73,48.821 0.09,191.23 -0.49,382.459 0.7,573.689 0.14,23.13 -14.91,58.16 29.64,62.05 50.84,4.44 33.73,-35.05 39.19,-60.13 0.85,-3.91 3.84,-7.35 5.9,-10.96 148.25,101.52 276.31,98.2 371.75,-9.61 80.32,-90.73 79.33,-245.848 -2.18,-342.121 -84.34,-99.617 -223.42,-104.117 -375.25,-3.93" /><path
         id="path44"
         style="fill:#5aa9e1;fill-opacity:1;fill-rule:nonzero;stroke:none"
         d="m 11375.5,913.582 c 94,111.118 187.9,222.228 281.9,333.368 18.8,22.28 36.4,49.62 71.5,38.18 36.8,-12 21.1,-45.38 21.4,-69.18 1.6,-126.02 0.9,-252.071 0.6,-378.11 0,-23.777 6.4,-50.289 -34.2,-50.418 -38.3,-0.109 -36.8,22.547 -36.7,48.617 0.3,107.371 0.1,214.741 0.1,342.241 -68.9,-81.5 -126,-148.84 -182.9,-216.339 -40.6,-48.128 -81.5,-95.941 -121,-144.968 -18.9,-23.453 -41.5,-36.063 -70.2,-27.192 -30.8,9.539 -17.1,38.059 -17.3,57.969 -1.3,128.27 -0.7,256.57 -0.6,384.86 0.1,26.45 -6.4,56.1 37.8,54.26 40.1,-1.68 32.6,-30.05 32.8,-53.12 0.7,-105.35 0.3,-210.71 0.3,-316.07 5.5,-1.367 11,-2.731 16.5,-4.098" /><path
         id="path46"
         style="fill:#5aa9e1;fill-opacity:1;fill-rule:nonzero;stroke:none"
         d="m 8299.92,1018.73 c -28.74,-3.01 -67.37,5.14 -104.18,-10.27 -65.3,-27.331 -77.16,-102.448 -22.66,-145.78 64.5,-51.301 198.94,-22.008 236.64,51.55 34.7,67.68 13.56,104.28 -60.36,104.5 -13.47,0.03 -26.95,0 -49.44,0 z M 8424.3,852.551 c -76.67,-67.539 -151.54,-80.891 -232.58,-63.141 -70.33,15.403 -118.64,70.461 -120.78,135.36 -2.24,67.8 38.6,115.29 115.82,136.36 62.09,16.94 125.35,8.82 187.93,8.14 41.41,-0.44 50.84,16.7 45.68,52.41 -7.92,54.69 -35.89,91.01 -91.87,102.1 -61.98,12.27 -120.9,2.61 -176.25,-27.13 -20.27,-10.89 -38.43,-25.86 -54.89,5.09 -17.68,33.23 11.78,38.25 28.99,48.18 73.77,42.58 154.06,49.44 235.16,31.81 77.22,-16.77 124.62,-79.36 126.55,-162.18 2.1,-89.9 1.85,-179.921 -0.17,-269.82 -0.47,-20.718 17.23,-52.531 -21.08,-60.769 -39.15,-8.43 -49.9,16.32 -42.51,63.59" /><path
         id="path48"
         style="fill:#5aa9e1;fill-opacity:1;fill-rule:nonzero;stroke:none"
         d="m 6229.24,1123.41 c 0.01,92.34 1.4,184.7 -0.68,276.99 -0.83,36.7 8.3,51.83 48.39,51.06 121.58,-2.34 243.24,-0.79 364.86,-0.91 20.06,-0.02 41.6,3.35 43.31,-27.77 1.82,-33.23 -18.17,-35.6 -43.2,-35.49 -96.84,0.41 -193.74,-1.55 -290.52,0.91 -41.7,1.06 -55.78,-13.4 -53.38,-54.37 2.9,-49.38 2.71,-99.16 0.08,-148.56 -2.16,-40.61 11.76,-56.07 53.61,-54.73 81,2.58 162.15,1.05 243.23,0.49 21.42,-0.15 47.87,5.81 49.37,-29.43 1.69,-39.56 -26.89,-34.39 -51.13,-34.5 -78.83,-0.34 -157.73,-2.06 -236.47,0.61 -43.08,1.46 -61.4,-11.31 -58.77,-56.87 3.24,-56.11 1.15,-112.559 0.57,-168.86 -0.26,-25.468 8.8,-55.941 -36.78,-54.429 -41.38,1.371 -32.05,29.398 -32.21,52.101 -0.66,94.578 -0.28,189.168 -0.28,283.758" /><path
         id="path50"
         style="fill:#5aa9e1;fill-opacity:1;fill-rule:nonzero;stroke:none"
         d="m 9728.26,882.992 c 53.29,119.468 108.52,239.438 160.04,360.988 16.65,39.28 38.76,51.6 83.55,35.4 -59.43,-133.57 -118.26,-266.44 -177.68,-399.048 -28.46,-63.512 -54.92,-128.223 -87.9,-189.363 -47.53,-88.098 -139.88,-117.188 -224.04,-74.797 -18.93,9.539 -44.68,16.777 -31.52,48.777 13.31,32.391 29.58,18.531 51.91,8.442 45.61,-20.629 94.9,-24.692 129.12,19.332 32.39,41.668 62.98,83.488 32.06,146.109 -62.6,126.797 -118.04,257.178 -174.26,387.018 -7.47,17.24 -39.87,42.95 -2.88,58.72 31.21,13.31 51.99,-6.04 65.74,-38.4 47.43,-111.57 97.82,-221.88 147.32,-332.568 5.27,-11.793 7.13,-26.879 28.54,-30.61" /><path
         id="path52"
         style="fill:#5aa9e1;fill-opacity:1;fill-rule:nonzero;stroke:none"
         d="m 11098,1031.68 c 0,-65.211 -0.1,-130.418 0,-195.629 0.1,-25.11 3.7,-50.289 -35.9,-48.321 -35.7,1.77 -30.7,25.399 -30.8,47.262 -0.2,107.938 -2.2,215.938 0.9,323.788 1.3,47.62 -8.6,66.66 -62,66.37 -176,-0.98 -175.5,1.34 -185.3,-174.96 -3.7,-67.37 -11,-134.651 -38.7,-197.311 -22.2,-50.258 -58.8,-78.816 -117,-68.688 -13.6,2.348 -27.3,5.778 -26.9,23.821 0.3,15.937 0.4,33.199 22.3,34.801 61.5,4.5 73.7,51.117 83.2,98.398 19.2,95.159 19.2,192.209 23.1,288.569 1.7,43.01 12.9,59.39 58,57.75 87.6,-3.19 175.4,-2.24 263,-0.33 35.2,0.77 47.7,-11.15 46.7,-46.41 -2.1,-69.65 -0.6,-139.4 -0.6,-209.11" /><path
         id="path54"
         style="fill:#5aa9e1;fill-opacity:1;fill-rule:nonzero;stroke:none"
         d="m 6960.9,1092.06 c -0.02,83.15 -1.29,166.32 0.57,249.43 0.79,35.31 -12.11,47.8 -46.86,46.4 -49.36,-1.98 -98.88,0.08 -148.31,-0.51 -24.53,-0.3 -37.32,7.7 -36.93,34.89 0.37,26.07 15.41,28.36 35.19,28.34 155.07,-0.14 310.15,-0.32 465.23,0.25 24.89,0.09 37.84,-7.68 36.71,-34.62 -1.04,-24.86 -16.12,-28.91 -36.15,-28.81 -40.45,0.2 -81.41,-3.99 -121.25,0.91 -65,8 -78.89,-20.43 -77.45,-80.01 3.7,-152.73 1.89,-305.61 0.58,-458.42 -0.22,-24.621 16.75,-62.019 -35,-62.258 -51.43,-0.23 -35.25,36.559 -35.72,61.707 -1.54,80.871 -0.58,161.791 -0.61,242.701" /><path
         id="path56"
         style="fill:#5aa9e1;fill-opacity:1;fill-rule:nonzero;stroke:none"
         d="m 7871.91,1049.2 c 63.55,-32.68 107.25,-74.438 88.75,-145.95 -18.86,-72.937 -79.82,-99.437 -145.6,-113.98 -79.39,-17.547 -156.53,-6.598 -230,28.402 -20.95,9.98 -41.69,20.73 -30.02,50.387 16.35,41.57 36.77,6.773 52.64,0.91 71.37,-26.367 143.07,-40.848 217.04,-13.297 40.22,14.98 72.5,39.168 68.13,88.449 -4.19,47.328 -41.89,61.179 -79.63,70.199 -23.66,5.65 -49.48,1.73 -73.63,6.04 -22.47,4.01 -62.4,-18 -61.46,27.25 0.83,39.96 37.5,21.04 58.39,22.85 31.34,2.72 62.82,1.15 92.64,14.19 28.79,12.6 50.51,30.69 50.07,64.75 -0.42,33.38 -21.05,53.73 -49.68,65.95 -68.73,29.35 -136.48,16.79 -203.86,-6.32 -19.54,-6.7 -41.61,-24.39 -52.94,11.74 -9.36,29.82 13.76,33.33 31.16,41.64 63.33,30.24 130.99,32.68 198.27,24.05 62.01,-7.95 120.99,-29.84 142.26,-96.57 20.15,-63.25 -15.79,-106.1 -72.53,-140.69" /><path
         id="path58"
         style="fill:#ffffff;fill-opacity:1;fill-rule:nonzero;stroke:none"
         d="m 10304.5,840.551 c -107,-0.582 -182,74.219 -182.3,181.739 -0.2,105.45 70.9,174.39 179.8,174.26 107.4,-0.13 179.7,-71.29 178.9,-176.01 -0.9,-105.571 -73.2,-179.419 -176.4,-179.989" /><path
         id="path60"
         style="fill:#ffffff;fill-opacity:1;fill-rule:nonzero;stroke:none"
         d="M 9352.94,1032.63 C 9351,923.371 9271.39,842.402 9166.52,843.031 c -110.09,0.649 -182.77,80.149 -181.34,198.349 1.36,112.26 76.6,190.22 183.81,190.45 105.44,0.23 185.95,-86.95 183.95,-199.2" /><path
         id="path62"
         style="fill:#ffffff;fill-opacity:1;fill-rule:nonzero;stroke:none"
         d="m 8299.92,1018.73 c 22.49,0 35.97,0.03 49.44,0 73.92,-0.22 95.06,-36.82 60.36,-104.5 -37.7,-73.558 -172.14,-102.851 -236.64,-51.55 -54.5,43.332 -42.64,118.449 22.66,145.78 36.81,15.41 75.44,7.26 104.18,10.27" /></g></g></svg>