<svg width="30" height="30" viewBox="0 0 30 30" fill="none" xmlns="http://www.w3.org/2000/svg">
<path d="M15 0C12.0332 3.97458e-06 9.13316 0.87974 6.66643 2.52796C4.1997 4.17618 2.27712 6.51885 1.14181 9.25974C0.00649845 12.0006 -0.29055 15.0166 0.288227 17.9263C0.867005 20.836 2.29561 23.5088 4.39339 25.6066C6.49118 27.7043 9.16391 29.1329 12.0736 29.7117C14.9833 30.2905 17.9993 29.9935 20.7402 28.8582C23.4811 27.7228 25.8238 25.8003 27.472 23.3335C29.1202 20.8668 30 17.9667 30 15C30 11.0218 28.4196 7.20645 25.6066 4.39341C22.7935 1.58036 18.9782 5.32974e-06 15 0ZM24.3216 14.076C24.2538 12.53 23.9885 10.999 23.5323 9.52031C24.3625 9.10792 25.1544 8.62272 25.8987 8.0704C27.0513 9.87523 27.7337 11.9399 27.8838 14.076L24.3216 14.076ZM27.8757 16.085C27.6985 18.2217 26.9891 20.2799 25.8121 22.0719C25.0795 21.5448 24.3041 21.0799 23.494 20.682C23.9613 19.1906 24.2378 17.646 24.3169 16.085H27.8757ZM24.6802 6.45612C24.0901 6.89526 23.466 7.28658 22.8136 7.62634C21.9969 5.81125 20.8183 4.18196 19.3499 2.83825C21.403 3.57615 23.2364 4.82058 24.6802 6.45612ZM21.0387 8.40622C19.41 8.96958 17.707 9.28932 15.9849 9.3551V2.79243C18.2284 4.0727 20.0003 6.04097 21.0387 8.40618V8.40622ZM13.9753 2.79256V9.34737C12.2593 9.26094 10.5647 8.92838 8.94337 8.35988C9.98393 6.0149 11.7471 4.06412 13.9753 2.79256ZM13.9753 11.3561V14.076H7.60397C7.66441 12.7774 7.87882 11.4905 8.2427 10.2424C10.0887 10.8924 12.0202 11.2677 13.9753 11.3561ZM13.9753 16.085V18.7976C12.0361 18.8654 10.1179 19.2216 8.2836 19.8544C7.9195 18.6271 7.69511 17.3626 7.6147 16.085H13.9753ZM13.9753 20.8064V27.3632C11.7509 26.0714 10.0006 24.0987 8.98292 21.7362C10.5931 21.1856 12.2749 20.8724 13.9753 20.8064V20.8064ZM15.9849 27.3632V20.8142C17.6797 20.8991 19.3539 21.2237 20.9576 21.7783C19.9381 24.1227 18.1957 26.0796 15.9849 27.3632V27.3632ZM15.9849 18.8054V16.085H22.346C22.2643 17.3788 22.0349 18.6589 21.6622 19.9005C19.8328 19.2623 17.9204 18.8935 15.9849 18.8054V18.8054ZM15.9849 14.0759V11.3639C17.9437 11.2962 19.8811 10.934 21.7321 10.2896C22.0873 11.523 22.2969 12.7938 22.3567 14.0759H15.9849ZM10.5831 2.86277C9.13996 4.19085 7.97858 5.79556 7.16805 7.58149C6.52401 7.25409 5.90571 6.87835 5.31847 6.4575C6.74658 4.8395 8.55624 3.60385 10.5831 2.86277ZM5.64369 16.085C5.72211 17.6273 5.99309 19.1537 6.45034 20.6287C5.64734 21.0262 4.87982 21.4916 4.15619 22.0199C2.99839 20.2402 2.30022 18.201 2.12422 16.085H5.64369ZM2.11607 14.0759C2.26642 11.9355 2.9512 9.86692 4.10774 8.05956C4.84553 8.59403 5.6272 9.06517 6.44438 9.46794C5.97816 10.9628 5.70748 12.5116 5.63909 14.076L2.11607 14.0759ZM5.38753 23.6185C5.95325 23.2088 6.54904 22.8423 7.16984 22.5221C7.92477 24.2096 8.98915 25.7407 10.3079 27.0363C8.42337 26.2969 6.73824 25.1263 5.38753 23.6184V23.6185ZM19.627 27.0601C20.9453 25.7716 22.0111 24.2479 22.7694 22.5677C23.3981 22.8858 24.0025 23.2497 24.5778 23.6565C23.217 25.1632 21.5211 26.3291 19.627 27.0601Z" fill="white"/>
</svg>
