<?xml version="1.0" encoding="UTF-8"?>
<svg xmlns="http://www.w3.org/2000/svg" xmlns:xlink="http://www.w3.org/1999/xlink" viewBox="0 0 48 48" width="28px" height="28px">
<g id="surface664467">
<path style=" stroke:none;fill-rule:nonzero;fill:rgb(100%,99.215686%,99.215686%);fill-opacity:1;" d="M 41.144531 6.023438 C 40.480469 5.953125 39.757812 6.058594 39.03125 6.34375 C 38.132812 6.699219 24.027344 12.628906 10.882812 18.164062 L 6.539062 19.992188 C 4.855469 20.675781 4.007812 21.785156 4.007812 23.277344 C 4.007812 24.324219 4.449219 25.742188 6.5625 26.578125 L 13.894531 29.515625 C 14.527344 31.417969 16 35.832031 16.371094 37.007812 C 16.589844 37.703125 17.148438 39.457031 18.550781 39.867188 C 18.839844 39.964844 19.140625 40.015625 19.445312 40.015625 C 20.332031 40.015625 20.96875 39.601562 21.28125 39.363281 L 25.941406 35.421875 L 31.601562 40.65625 C 31.820312 40.878906 32.972656 42 34.523438 42 C 36.457031 42 37.925781 40.390625 38.230469 38.832031 C 38.394531 37.976562 43.855469 10.574219 43.855469 10.578125 C 44.34375 8.378906 43.464844 7.238281 42.898438 6.753906 C 42.414062 6.339844 41.808594 6.09375 41.144531 6.023438 Z M 39.820312 10.34375 C 39.066406 14.125 34.957031 34.757812 34.332031 37.730469 L 26.058594 30.078125 L 20.445312 34.832031 L 22 28.75 C 22 28.75 32.726562 17.894531 33.371094 17.261719 C 33.890625 16.753906 34 16.578125 34 16.402344 C 34 16.167969 33.878906 16 33.601562 16 C 33.351562 16 33.011719 16.238281 32.832031 16.351562 C 30.546875 17.777344 20.808594 23.324219 16.015625 26.050781 L 9.0625 23.273438 L 12.4375 21.855469 C 21.035156 18.234375 36.347656 11.789062 39.820312 10.34375 Z M 39.820312 10.34375 "/>
</g>
</svg>
