<svg width="56" height="57" viewBox="0 0 56 57" fill="none" xmlns="http://www.w3.org/2000/svg">
  <g filter="url(#filter0_d_7020_36824)">
    <rect x="3" width="50" height="50" rx="16" fill="#FAFAFA"/>
  </g>
  <path
    d="M17.332 24.3333V19.5C17.332 18.1193 18.4513 17 19.832 17H21.9987H23.1654M35.9987 20.6667V19.5C35.9987 18.1193 34.8794 17 33.4987 17H31.332"
    stroke="#673BB7" stroke-width="2"/>
  <path
    d="M21.332 20.334L23.2181 14.6759C23.2861 14.4717 23.4772 14.334 23.6924 14.334H31.3358C31.668 14.334 31.9079 14.6519 31.8166 14.9713L30.6654 19.0007L29.9987 21.0007"
    stroke="#673BB7" stroke-width="2" stroke-linecap="round"/>
  <path
    d="M31.332 35.6667H20.132C18.5856 35.6667 17.332 34.4131 17.332 32.8667V23.8C17.332 22.2536 18.5856 21 20.132 21H35.8654C37.4118 21 38.6654 22.2536 38.6654 23.8V32.8667C38.6654 34.4131 37.4118 35.6667 35.8654 35.6667H32.6813H30.9502"
    stroke="#673BB7" stroke-width="2"/>
  <path
    d="M17.332 26.334H20.6654C21.7699 26.334 22.6654 27.2294 22.6654 28.334V28.334C22.6654 29.4386 21.7699 30.334 20.6654 30.334H17.332V26.334Z"
    stroke="#673BB7" stroke-width="2"/>
  <defs>
    <filter id="filter0_d_7020_36824" x="0" y="0" width="56" height="57" filterUnits="userSpaceOnUse"
            color-interpolation-filters="sRGB">
      <feFlood flood-opacity="0" result="BackgroundImageFix"/>
      <feColorMatrix in="SourceAlpha" type="matrix" values="0 0 0 0 0 0 0 0 0 0 0 0 0 0 0 0 0 0 127 0"
                     result="hardAlpha"/>
      <feOffset dy="4"/>
      <feGaussianBlur stdDeviation="1.5"/>
      <feComposite in2="hardAlpha" operator="out"/>
      <feColorMatrix type="matrix" values="0 0 0 0 0.403922 0 0 0 0 0.231373 0 0 0 0 0.717647 0 0 0 0.1 0"/>
      <feBlend mode="normal" in2="BackgroundImageFix" result="effect1_dropShadow_7020_36824"/>
      <feBlend mode="normal" in="SourceGraphic" in2="effect1_dropShadow_7020_36824" result="shape"/>
    </filter>
  </defs>
</svg>
