<svg viewBox="0 0 20 16" fill="none" xmlns="http://www.w3.org/2000/svg">
<path d="M3.1852 5.80003L6.29402 2.78003C6.94598 2.1467 7.845 1.8067 8.76461 1.85337L12.196 2.01337C13.5685 2.07337 14.6597 3.13337 14.7283 4.46003L14.893 7.79337C14.9342 8.6867 14.5911 9.56003 13.9391 10.1934L10.8303 13.2134C9.55383 14.4534 7.48128 14.4534 6.19794 13.2134L3.1852 10.2867C1.90187 9.05337 1.90187 7.04003 3.1852 5.80003ZM10.2744 8.25337C11.3656 8.25337 12.2509 7.39337 12.2509 6.33337C12.2509 5.27337 11.3656 4.41337 10.2744 4.41337C9.18324 4.41337 8.29794 5.27337 8.29794 6.33337C8.29794 7.39337 9.18324 8.25337 10.2744 8.25337Z" fill="currentColor"/>
<ellipse cx="15.7647" cy="11" rx="4.11765" ry="4" fill="white"/>
<path d="M14.2206 11H17.3088" stroke="currentColor" stroke-width="0.8" stroke-linecap="round" stroke-linejoin="round"/>
<path d="M15.7648 12.5V9.5" stroke="currentColor" stroke-width="0.8" stroke-linecap="round" stroke-linejoin="round"/>
</svg>
