<svg viewBox="0 0 16 16" fill="none" xmlns="http://www.w3.org/2000/svg">
<path d="M13.4734 5.21336L8.34002 8.18669C8.13335 8.30669 7.87335 8.30669 7.66002 8.18669L2.52669 5.21336C2.16002 5.00002 2.06669 4.50002 2.34669 4.18669C2.54002 3.96669 2.76002 3.78669 2.99335 3.66002L6.60669 1.66002C7.38002 1.22669 8.63335 1.22669 9.40669 1.66002L13.02 3.66002C13.2534 3.78669 13.4734 3.97336 13.6667 4.18669C13.9334 4.50002 13.84 5.00002 13.4734 5.21336Z" fill="black"/>
<path d="M7.62003 9.42669V13.9734C7.62003 14.48 7.10669 14.8134 6.65336 14.5934C5.28003 13.92 2.96669 12.66 2.96669 12.66C2.15336 12.2 1.48669 11.04 1.48669 10.0867V6.64669C1.48669 6.12002 2.04003 5.78669 2.49336 6.04669L7.28669 8.82669C7.48669 8.95335 7.62003 9.18002 7.62003 9.42669Z" fill="black"/>
<path d="M8.38 9.42669V13.9734C8.38 14.48 8.89334 14.8134 9.34667 14.5934C10.72 13.92 13.0333 12.66 13.0333 12.66C13.8467 12.2 14.5133 11.04 14.5133 10.0867V6.64669C14.5133 6.12002 13.96 5.78669 13.5067 6.04669L8.71334 8.82669C8.51334 8.95335 8.38 9.18002 8.38 9.42669Z" fill="black"/>
</svg>
