<svg viewBox="0 0 16 16" fill="none" xmlns="http://www.w3.org/2000/svg">
<path d="M10.6667 5.33337H5.33337V10.6667H10.6667V5.33337Z" fill="black"/>
<path d="M1.33337 12.6666C1.33337 13.7666 2.23337 14.6666 3.33337 14.6666C4.43337 14.6666 5.33337 13.7666 5.33337 12.6666V10.6666H3.33337C2.23337 10.6666 1.33337 11.5666 1.33337 12.6666Z" fill="black"/>
<path d="M3.33337 1.33337C2.23337 1.33337 1.33337 2.23337 1.33337 3.33337C1.33337 4.43337 2.23337 5.33337 3.33337 5.33337H5.33337V3.33337C5.33337 2.23337 4.43337 1.33337 3.33337 1.33337Z" fill="black"/>
<path d="M14.6666 3.33337C14.6666 2.23337 13.7666 1.33337 12.6666 1.33337C11.5666 1.33337 10.6666 2.23337 10.6666 3.33337V5.33337H12.6666C13.7666 5.33337 14.6666 4.43337 14.6666 3.33337Z" fill="black"/>
<path d="M12.6666 10.6666H10.6666V12.6666C10.6666 13.7666 11.5666 14.6666 12.6666 14.6666C13.7666 14.6666 14.6666 13.7666 14.6666 12.6666C14.6666 11.5666 13.7666 10.6666 12.6666 10.6666Z" fill="black"/>
</svg>
