<svg viewBox="0 0 16 16" fill="none" xmlns="http://www.w3.org/2000/svg">
<path d="M12.9134 3.26008L9.0067 1.52008C8.43337 1.26674 7.5667 1.26674 6.99337 1.52008L3.0867 3.26008C2.10004 3.70008 1.95337 4.30008 1.95337 4.62008C1.95337 4.94008 2.10004 5.54008 3.0867 5.98008L6.99337 7.72008C7.28004 7.84674 7.64004 7.91341 8.00004 7.91341C8.36004 7.91341 8.72004 7.84674 9.0067 7.72008L12.9134 5.98008C13.9 5.54008 14.0467 4.94008 14.0467 4.62008C14.0467 4.30008 13.9067 3.70008 12.9134 3.26008Z" fill="currentColor"/>
<path d="M7.99997 11.3599C7.74663 11.3599 7.4933 11.3066 7.25997 11.2066L2.76663 9.20659C2.07996 8.89992 1.54663 8.07992 1.54663 7.32659C1.54663 7.05325 1.76663 6.83325 2.03996 6.83325C2.3133 6.83325 2.5333 7.05325 2.5333 7.32659C2.5333 7.68659 2.8333 8.15325 3.16663 8.29992L7.65997 10.2999C7.8733 10.3933 8.11997 10.3933 8.3333 10.2999L12.8266 8.29992C13.16 8.15325 13.46 7.69325 13.46 7.32659C13.46 7.05325 13.68 6.83325 13.9533 6.83325C14.2266 6.83325 14.4466 7.05325 14.4466 7.32659C14.4466 8.07325 13.9133 8.89992 13.2266 9.20659L8.7333 11.2066C8.50663 11.3066 8.2533 11.3599 7.99997 11.3599Z" fill="currentColor"/>
<path d="M7.99997 14.6666C7.74663 14.6666 7.4933 14.6132 7.25997 14.5132L2.76663 12.5132C2.02663 12.1866 1.54663 11.4466 1.54663 10.6332C1.54663 10.3599 1.76663 10.1399 2.03996 10.1399C2.3133 10.1399 2.5333 10.3599 2.5333 10.6332C2.5333 11.0532 2.77996 11.4332 3.16663 11.6066L7.65997 13.6066C7.8733 13.6999 8.11997 13.6999 8.3333 13.6066L12.8266 11.6066C13.2066 11.4399 13.46 11.0532 13.46 10.6332C13.46 10.3599 13.68 10.1399 13.9533 10.1399C14.2266 10.1399 14.4466 10.3599 14.4466 10.6332C14.4466 11.4466 13.9666 12.1799 13.2266 12.5132L8.7333 14.5132C8.50663 14.6132 8.2533 14.6666 7.99997 14.6666Z" fill="currentColor"/>
</svg>
