<svg viewBox="0 0 18 16" fill="none" xmlns="http://www.w3.org/2000/svg">
<path d="M11.0067 3.33998L9.70001 2.03331C8.76667 1.09998 7.23334 1.09998 6.30001 2.03331L4.99334 3.33998C4.73334 3.59998 4.73334 4.02665 4.99334 4.28665L7.53334 6.82665C7.79334 7.08665 8.21334 7.08665 8.47334 6.82665L11.0133 4.28665C11.2667 4.02665 11.2667 3.59998 11.0067 3.33998Z" fill="black"/>
<path d="M3.34004 4.99334L2.03337 6.30001C1.10004 7.23334 1.10004 8.76667 2.03337 9.70001L3.34004 11.0067C3.60004 11.2667 4.02004 11.2667 4.28004 11.0067L6.82004 8.46667C7.08004 8.20667 7.08004 7.78667 6.82004 7.52667L4.28671 4.99334C4.02671 4.73334 3.60004 4.73334 3.34004 4.99334Z" fill="black"/>
<path d="M13.9667 6.30001L12.66 4.99334C12.4 4.73334 11.98 4.73334 11.72 4.99334L9.17999 7.53334C8.91999 7.79334 8.91999 8.21334 9.17999 8.47334L11.72 11.0133C11.98 11.2733 12.4 11.2733 12.66 11.0133L13.9667 9.70667C14.9 8.76667 14.9 7.23334 13.9667 6.30001Z" fill="black"/>
<path d="M4.99333 12.66L6.29999 13.9667C7.23333 14.9 8.76666 14.9 9.69999 13.9667L11.0067 12.66C11.2667 12.4 11.2667 11.98 11.0067 11.72L8.46666 9.17999C8.20666 8.91999 7.78666 8.91999 7.52666 9.17999L4.98666 11.72C4.73333 11.9733 4.73333 12.4 4.99333 12.66Z" fill="black"/>
<circle cx="14" cy="11" r="4" fill="#F5F0FF"/>
<path d="M12.5 11H15.5" stroke="black" stroke-width="0.8" stroke-linecap="round" stroke-linejoin="round"/>
<path d="M14 12.5V9.5" stroke="black" stroke-width="0.8" stroke-linecap="round" stroke-linejoin="round"/>
</svg>
