<svg viewBox="0 0 19 16" fill="none" xmlns="http://www.w3.org/2000/svg">
<path d="M2.78006 5.79997L5.80006 2.77997C6.43339 2.14664 7.30672 1.80664 8.20006 1.8533L11.5334 2.0133C12.8667 2.0733 13.9267 3.1333 13.9934 4.45997L14.1534 7.7933C14.1934 8.68664 13.8601 9.55997 13.2267 10.1933L10.2067 13.2133C8.96672 14.4533 6.95339 14.4533 5.70673 13.2133L2.78006 10.2866C1.53339 9.0533 1.53339 7.03997 2.78006 5.79997ZM9.66672 8.2533C10.7267 8.2533 11.5867 7.3933 11.5867 6.3333C11.5867 5.2733 10.7267 4.4133 9.66672 4.4133C8.60672 4.4133 7.74672 5.2733 7.74672 6.3333C7.74672 7.3933 8.60672 8.2533 9.66672 8.2533Z" fill="currentColor"/>
<circle cx="15" cy="11" r="4" fill="white"/>
<path d="M13.5 11H16.5" stroke="currentColor" stroke-width="0.8" stroke-linecap="round" stroke-linejoin="round"/>
<path d="M15 12.5V9.5" stroke="currentColor" stroke-width="0.8" stroke-linecap="round" stroke-linejoin="round"/>
</svg>
