<svg viewBox="0 0 16 16" fill="none" xmlns="http://www.w3.org/2000/svg">
<path d="M4.59996 6.06675L7.77993 4.65341C7.91993 4.59341 8.07995 4.59341 8.21328 4.65341L11.3933 6.06675C11.6733 6.19341 11.9333 5.85341 11.7399 5.61341L8.4066 1.54008C8.17993 1.26008 7.8066 1.26008 7.57994 1.54008L4.2466 5.61341C4.05994 5.85341 4.31996 6.19341 4.59996 6.06675Z" fill="currentColor"/>
<path d="M4.60004 9.93342L7.78669 11.3468C7.92669 11.4068 8.08671 11.4068 8.22004 11.3468L11.4067 9.93342C11.6867 9.80675 11.9467 10.1468 11.7534 10.3868L8.42003 14.4601C8.19337 14.7401 7.82004 14.7401 7.59337 14.4601L4.26004 10.3868C4.06004 10.1468 4.31338 9.80675 4.60004 9.93342Z" fill="currentColor"/>
<path d="M7.85338 6.32675L5.10004 7.70008C4.85337 7.82008 4.85337 8.17341 5.10004 8.29341L7.85338 9.66675C7.94671 9.71341 8.06001 9.71341 8.15334 9.66675L10.9067 8.29341C11.1533 8.17341 11.1533 7.82008 10.9067 7.70008L8.15334 6.32675C8.05334 6.28008 7.94671 6.28008 7.85338 6.32675Z" fill="currentColor"/>
</svg>
