<svg viewBox="0 0 16 16" fill="none" xmlns="http://www.w3.org/2000/svg">
<path d="M14.3 9.09334V9.76001C14.3 9.94001 14.16 10.0867 13.9734 10.0933H13C12.6467 10.0933 12.3267 9.83334 12.3 9.48668C12.28 9.28001 12.36 9.08668 12.4934 8.95334C12.6134 8.82668 12.78 8.76001 12.96 8.76001H13.9667C14.16 8.76668 14.3 8.91334 14.3 9.09334Z" fill="currentColor"/>
<path d="M11.9933 8.46005C11.66 8.78672 11.5 9.27338 11.6333 9.78005C11.8066 10.4001 12.4133 10.7934 13.0533 10.7934H13.6333C14 10.7934 14.3 11.0934 14.3 11.4601V11.5867C14.3 12.9667 13.1733 14.0934 11.7933 14.0934H4.13997C2.75997 14.0934 1.6333 12.9667 1.6333 11.5867V7.10005C1.6333 6.28005 2.02663 5.55338 2.6333 5.10005C3.0533 4.78005 3.5733 4.59338 4.13997 4.59338H11.7933C13.1733 4.59338 14.3 5.72005 14.3 7.10005V7.39338C14.3 7.76005 14 8.06005 13.6333 8.06005H12.9533C12.58 8.06005 12.24 8.20672 11.9933 8.46005Z" fill="currentColor"/>
<path d="M10.8 3.21337C10.98 3.39337 10.8266 3.67337 10.5733 3.67337L5.45329 3.66671C5.15996 3.66671 5.00662 3.30671 5.21996 3.10004L6.29996 2.01337C7.21329 1.10671 8.69329 1.10671 9.60662 2.01337L10.7733 3.19337C10.78 3.20004 10.7933 3.20671 10.8 3.21337Z" fill="currentColor"/>
</svg>
