<svg viewBox="0 0 16 16" fill="none" xmlns="http://www.w3.org/2000/svg">
<path d="M7.17331 1.33334C6.85331 1.33334 6.59998 1.58667 6.59998 1.90667V7.54667H9.04664L7.99998 6.5C7.80664 6.30667 7.80664 5.98667 7.99998 5.79334C8.19331 5.6 8.51331 5.6 8.70664 5.79334L10.6 7.69334C10.7933 7.88667 10.7933 8.20667 10.6 8.4L8.70664 10.3C8.60664 10.4 8.47998 10.4467 8.35331 10.4467C8.22664 10.4467 8.09998 10.4 7.99998 10.3C7.80664 10.1067 7.80664 9.78667 7.99998 9.59334L9.03998 8.55334H6.59998V14.1067C6.59998 14.42 6.85331 14.68 7.17331 14.68C11.1 14.68 13.84 11.94 13.84 8.01334C13.84 4.08667 11.0933 1.33334 7.17331 1.33334Z" fill="currentColor"/>
<path d="M2.66003 7.54667C2.3867 7.54667 2.16003 7.77334 2.16003 8.04667C2.16003 8.32 2.3867 8.54667 2.66003 8.54667H6.59337V7.54667H2.66003Z" fill="currentColor"/>
</svg>
