<svg viewBox="0 0 16 16" fill="none" xmlns="http://www.w3.org/2000/svg">
<path d="M10.7466 8.04671C10.7466 7.77337 10.52 7.54671 10.2466 7.54671H6.5933V1.90671C6.59997 1.58671 6.8533 1.33337 7.1733 1.33337C11.1 1.33337 13.84 4.07337 13.84 8.00004C13.84 11.9267 11.1 14.6667 7.1733 14.6667C6.85997 14.6667 6.59997 14.4134 6.59997 14.0934V8.54004H10.2466C10.5266 8.54671 10.7466 8.32004 10.7466 8.04671Z" fill="currentColor"/>
<path d="M2.30664 7.69332L4.19998 5.79332C4.39331 5.59998 4.71331 5.59998 4.90664 5.79332C5.09998 5.98665 5.09998 6.30665 4.90664 6.49998L3.86664 7.53998H6.59998V8.53998H3.87331L4.91331 9.57998C5.10664 9.77332 5.10664 10.0933 4.91331 10.2866C4.81331 10.3866 4.68664 10.4333 4.55998 10.4333C4.43331 10.4333 4.30664 10.3866 4.20664 10.2866L2.31331 8.38665C2.11331 8.19998 2.11331 7.88665 2.30664 7.69332Z" fill="currentColor"/>
</svg>
