<svg viewBox="0 0 16 16" fill="none" xmlns="http://www.w3.org/2000/svg">
<path d="M13.3333 8.00004V12C13.3333 13.4734 12.14 14.6667 10.6666 14.6667H5.33329C3.85996 14.6667 2.66663 13.4734 2.66663 12V8.00004C2.66663 7.63337 2.96663 7.33337 3.33329 7.33337H4.64663C5.01329 7.33337 5.31329 7.63337 5.31329 8.00004V10.0934C5.31329 10.5867 5.58663 11.04 6.01996 11.2734C6.21329 11.38 6.42663 11.4334 6.64663 11.4334C6.89996 11.4334 7.15329 11.36 7.37329 11.2134L8.00663 10.8L8.59329 11.1934C8.99996 11.4667 9.51996 11.5 9.95329 11.2667C10.3933 11.0334 10.6666 10.5867 10.6666 10.0867V8.00004C10.6666 7.63337 10.9666 7.33337 11.3333 7.33337H12.6666C13.0333 7.33337 13.3333 7.63337 13.3333 8.00004Z" fill="currentColor"/>
<path d="M14.3333 4.66671V5.33337C14.3333 6.06671 13.98 6.66671 13 6.66671H2.99996C1.97996 6.66671 1.66663 6.06671 1.66663 5.33337V4.66671C1.66663 3.93337 1.97996 3.33337 2.99996 3.33337H13C13.98 3.33337 14.3333 3.93337 14.3333 4.66671Z" fill="currentColor"/>
<path d="M7.76006 3.33329H4.08006C3.85339 3.08663 3.86006 2.70663 4.10006 2.46663L5.04673 1.51996C5.29339 1.27329 5.70006 1.27329 5.94673 1.51996L7.76006 3.33329Z" fill="currentColor"/>
<path d="M11.9133 3.33329H8.23328L10.0466 1.51996C10.2933 1.27329 10.6999 1.27329 10.9466 1.51996L11.8933 2.46663C12.1333 2.70663 12.1399 3.08663 11.9133 3.33329Z" fill="currentColor"/>
<path d="M9.31329 7.33337C9.67996 7.33337 9.97996 7.63337 9.97996 8.00004V10.0867C9.97996 10.62 9.38663 10.94 8.94663 10.64L8.34663 10.24C8.12663 10.0934 7.83996 10.0934 7.61329 10.24L6.98663 10.6534C6.54663 10.9467 5.95996 10.6267 5.95996 10.1V8.00004C5.95996 7.63337 6.25996 7.33337 6.62663 7.33337H9.31329Z" fill="currentColor"/>
</svg>
