<svg viewBox="0 0 16 16" fill="none" xmlns="http://www.w3.org/2000/svg">
<g opacity="0.5">
<path d="M11.0067 3.33992L9.70001 2.03325C8.76667 1.09992 7.23334 1.09992 6.30001 2.03325L4.99334 3.33992C4.73334 3.59992 4.73334 4.02659 4.99334 4.28659L7.53334 6.82659C7.79334 7.08659 8.21334 7.08659 8.47334 6.82659L11.0133 4.28659C11.2667 4.02659 11.2667 3.59992 11.0067 3.33992Z" fill="currentColor"/>
<path d="M3.34004 4.99334L2.03337 6.30001C1.10004 7.23334 1.10004 8.76667 2.03337 9.70001L3.34004 11.0067C3.60004 11.2667 4.02004 11.2667 4.28004 11.0067L6.82004 8.46667C7.08004 8.20667 7.08004 7.78667 6.82004 7.52667L4.28671 4.99334C4.02671 4.73334 3.60004 4.73334 3.34004 4.99334Z" fill="currentColor"/>
<path d="M13.9667 6.30001L12.66 4.99334C12.4 4.73334 11.98 4.73334 11.72 4.99334L9.17999 7.53334C8.91999 7.79334 8.91999 8.21334 9.17999 8.47334L11.72 11.0133C11.98 11.2733 12.4 11.2733 12.66 11.0133L13.9667 9.70667C14.9 8.76667 14.9 7.23334 13.9667 6.30001Z" fill="currentColor"/>
<path d="M4.99333 12.6599L6.29999 13.9665C7.23333 14.8999 8.76666 14.8999 9.69999 13.9665L11.0067 12.6599C11.2667 12.3999 11.2667 11.9799 11.0067 11.7199L8.46666 9.17986C8.20666 8.91986 7.78666 8.91986 7.52666 9.17986L4.98666 11.7199C4.73333 11.9732 4.73333 12.3999 4.99333 12.6599Z" fill="currentColor"/>
</g>
</svg>
