<svg viewBox="0 0 16 16" fill="none" xmlns="http://www.w3.org/2000/svg">
<path d="M14.2533 7.63341L11.2533 5.90007C11.1 5.81341 10.9066 5.81341 10.7533 5.90007L7.75329 7.63341C7.75329 7.63341 7.75328 7.64007 7.74661 7.64007L4.99995 9.22674L2.49995 7.78007V4.8934L4.99995 3.44674L7.49995 4.8934V5.65341C7.49995 5.92674 7.72662 6.15341 7.99995 6.15341C8.27328 6.15341 8.49995 5.92674 8.49995 5.65341V4.60008C8.49995 4.42007 8.40661 4.25341 8.24661 4.16674L5.24661 2.43341C5.09328 2.34674 4.89995 2.34674 4.74661 2.43341L1.74661 4.16674C1.59328 4.25341 1.49329 4.42007 1.49329 4.60008V8.06674C1.49329 8.24674 1.58661 8.41341 1.74661 8.50007L4.74661 10.2334C4.82661 10.2801 4.91328 10.3001 4.99995 10.3001C5.08662 10.3001 5.17329 10.2801 5.25329 10.2334L8.25329 8.50007C8.25329 8.50007 8.25328 8.49341 8.25995 8.49341L11.0066 6.90674L13.5066 8.35341V11.2401L11.0066 12.6867L8.50661 11.2401V10.4267C8.50661 10.1534 8.27994 9.92674 8.00661 9.92674C7.73328 9.92674 7.50661 10.1534 7.50661 10.4267V11.5267C7.50661 11.7067 7.59995 11.8734 7.75995 11.9601L10.7599 13.6934C10.8399 13.7401 10.9266 13.7601 11.0133 13.7601C11.1 13.7601 11.1866 13.7401 11.2666 13.6934L14.2666 11.9601C14.4199 11.8734 14.5199 11.7067 14.5199 11.5267V8.06007C14.4999 7.88674 14.4066 7.72007 14.2533 7.63341Z" fill="currentColor"/>
<path d="M3 5.56655V7.10655C3 7.34655 3.12667 7.56655 3.33333 7.68655L4.66667 8.45322C4.87333 8.57322 5.12667 8.57322 5.33333 8.45322L6.66667 7.68655C6.87333 7.56655 7 7.34655 7 7.10655V5.56655C7 5.32655 6.87333 5.10655 6.66667 4.98655L5.33333 4.21988C5.12667 4.09988 4.87333 4.09988 4.66667 4.21988L3.33333 4.98655C3.12667 5.10655 3 5.32655 3 5.56655Z" fill="currentColor"/>
<path d="M9 9.03335V10.5733C9 10.8133 9.12667 11.0333 9.33333 11.1533L10.6667 11.92C10.8733 12.04 11.1267 12.04 11.3333 11.92L12.6667 11.1533C12.8733 11.0333 13 10.8133 13 10.5733V9.03335C13 8.79335 12.8733 8.57335 12.6667 8.45335L11.3333 7.68668C11.1267 7.56668 10.8733 7.56668 10.6667 7.68668L9.33333 8.45335C9.12667 8.57335 9 8.79335 9 9.03335Z" fill="currentColor"/>
</svg>
