<svg width="32" height="13" viewBox="0 0 32 13" fill="none" xmlns="http://www.w3.org/2000/svg">
<path d="M0 7C0 3.68629 2.68629 1 6 1H26C29.3137 1 32 3.68629 32 7C32 10.3137 29.3137 13 26 13H6C2.68629 13 0 10.3137 0 7Z" fill="url(#paint0_linear_1_427)"/>
<path d="M5.87859 10.07C5.43193 10.07 5.00193 10.0133 4.58859 9.9C4.18193 9.78 3.85859 9.63667 3.61859 9.47L4.09859 8.52C4.33859 8.67333 4.62526 8.8 4.95859 8.9C5.29193 9 5.62526 9.05 5.95859 9.05C6.35193 9.05 6.63526 8.99667 6.80859 8.89C6.98859 8.78333 7.07859 8.64 7.07859 8.46C7.07859 8.31333 7.01859 8.20333 6.89859 8.13C6.77859 8.05 6.62193 7.99 6.42859 7.95C6.23526 7.91 6.01859 7.87333 5.77859 7.84C5.54526 7.80667 5.30859 7.76333 5.06859 7.71C4.83526 7.65 4.62193 7.56667 4.42859 7.46C4.23526 7.34667 4.07859 7.19667 3.95859 7.01C3.83859 6.82333 3.77859 6.57667 3.77859 6.27C3.77859 5.93 3.87526 5.63667 4.06859 5.39C4.26193 5.13667 4.53193 4.94333 4.87859 4.81C5.23193 4.67 5.64859 4.6 6.12859 4.6C6.48859 4.6 6.85193 4.64 7.21859 4.72C7.58526 4.8 7.88859 4.91333 8.12859 5.06L7.64859 6.01C7.39526 5.85667 7.13859 5.75333 6.87859 5.7C6.62526 5.64 6.37193 5.61 6.11859 5.61C5.73859 5.61 5.45526 5.66667 5.26859 5.78C5.08859 5.89333 4.99859 6.03667 4.99859 6.21C4.99859 6.37 5.05859 6.49 5.17859 6.57C5.29859 6.65 5.45526 6.71333 5.64859 6.76C5.84193 6.80667 6.05526 6.84667 6.28859 6.88C6.52859 6.90667 6.76526 6.95 6.99859 7.01C7.23193 7.07 7.44526 7.15333 7.63859 7.26C7.83859 7.36 7.99859 7.50333 8.11859 7.69C8.23859 7.87667 8.29859 8.12 8.29859 8.42C8.29859 8.75333 8.19859 9.04333 7.99859 9.29C7.80526 9.53667 7.52859 9.73 7.16859 9.87C6.80859 10.0033 6.37859 10.07 5.87859 10.07ZM11.8751 10.07C11.3284 10.07 10.8417 9.95333 10.4151 9.72C9.98841 9.48 9.65175 9.15333 9.40508 8.74C9.15841 8.32667 9.03508 7.85667 9.03508 7.33C9.03508 6.79667 9.15841 6.32667 9.40508 5.92C9.65175 5.50667 9.98841 5.18333 10.4151 4.95C10.8417 4.71667 11.3284 4.6 11.8751 4.6C12.4284 4.6 12.9184 4.71667 13.3451 4.95C13.7784 5.18333 14.1151 5.50333 14.3551 5.91C14.6017 6.31667 14.7251 6.79 14.7251 7.33C14.7251 7.85667 14.6017 8.32667 14.3551 8.74C14.1151 9.15333 13.7784 9.48 13.3451 9.72C12.9184 9.95333 12.4284 10.07 11.8751 10.07ZM11.8751 9C12.1817 9 12.4551 8.93333 12.6951 8.8C12.9351 8.66667 13.1217 8.47333 13.2551 8.22C13.3951 7.96667 13.4651 7.67 13.4651 7.33C13.4651 6.98333 13.3951 6.68667 13.2551 6.44C13.1217 6.18667 12.9351 5.99333 12.6951 5.86C12.4551 5.72667 12.1851 5.66 11.8851 5.66C11.5784 5.66 11.3051 5.72667 11.0651 5.86C10.8317 5.99333 10.6451 6.18667 10.5051 6.44C10.3651 6.68667 10.2951 6.98333 10.2951 7.33C10.2951 7.67 10.3651 7.96667 10.5051 8.22C10.6451 8.47333 10.8317 8.66667 11.0651 8.8C11.3051 8.93333 11.5751 9 11.8751 9ZM18.4204 10.07C17.8737 10.07 17.3871 9.95333 16.9604 9.72C16.5337 9.48 16.1971 9.15333 15.9504 8.74C15.7037 8.32667 15.5804 7.85667 15.5804 7.33C15.5804 6.79667 15.7037 6.32667 15.9504 5.92C16.1971 5.50667 16.5337 5.18333 16.9604 4.95C17.3871 4.71667 17.8737 4.6 18.4204 4.6C18.9737 4.6 19.4637 4.71667 19.8904 4.95C20.3237 5.18333 20.6604 5.50333 20.9004 5.91C21.1471 6.31667 21.2704 6.79 21.2704 7.33C21.2704 7.85667 21.1471 8.32667 20.9004 8.74C20.6604 9.15333 20.3237 9.48 19.8904 9.72C19.4637 9.95333 18.9737 10.07 18.4204 10.07ZM18.4204 9C18.7271 9 19.0004 8.93333 19.2404 8.8C19.4804 8.66667 19.6671 8.47333 19.8004 8.22C19.9404 7.96667 20.0104 7.67 20.0104 7.33C20.0104 6.98333 19.9404 6.68667 19.8004 6.44C19.6671 6.18667 19.4804 5.99333 19.2404 5.86C19.0004 5.72667 18.7304 5.66 18.4304 5.66C18.1237 5.66 17.8504 5.72667 17.6104 5.86C17.3771 5.99333 17.1904 6.18667 17.0504 6.44C16.9104 6.68667 16.8404 6.98333 16.8404 7.33C16.8404 7.67 16.9104 7.96667 17.0504 8.22C17.1904 8.47333 17.3771 8.66667 17.6104 8.8C17.8504 8.93333 18.1204 9 18.4204 9ZM25.5957 4.6C26.0224 4.6 26.4024 4.68333 26.7357 4.85C27.0757 5.01667 27.3424 5.27333 27.5357 5.62C27.729 5.96 27.8257 6.4 27.8257 6.94V10H26.5757V7.1C26.5757 6.62667 26.4624 6.27333 26.2357 6.04C26.0157 5.80667 25.7057 5.69 25.3057 5.69C25.0124 5.69 24.7524 5.75 24.5257 5.87C24.299 5.99 24.1224 6.17 23.9957 6.41C23.8757 6.64333 23.8157 6.94 23.8157 7.3V10H22.5657V4.66H23.7557V6.1L23.5457 5.66C23.7324 5.32 24.0024 5.06 24.3557 4.88C24.7157 4.69333 25.129 4.6 25.5957 4.6Z" fill="white"/>
<defs>
<linearGradient id="paint0_linear_1_427" x1="16" y1="1" x2="16" y2="13" gradientUnits="userSpaceOnUse">
<stop stop-color="#A3359E"/>
<stop offset="1" stop-color="#E7246A"/>
</linearGradient>
</defs>
</svg>
